<?xml version="1.0" encoding="UTF-8" standalone="no"?>
<!DOCTYPE svg PUBLIC "-//W3C//DTD SVG 1.1//EN" "http://www.w3.org/Graphics/SVG/1.1/DTD/svg11.dtd">
<svg xmlns="http://www.w3.org/2000/svg" version="1.1" viewBox="0.00 0.00 637.00 637.00">
<g stroke-width="2.00" fill="none" stroke-linecap="butt">
<path stroke="#ebf3f7" vector-effect="non-scaling-stroke" d="
  M 116.48 307.02
  Q 113.62 305.19 109.44 305.11
  A 0.92 0.92 0.0 0 0 108.54 305.78
  L 104.84 319.05"
/>
<path stroke="#8092a5" vector-effect="non-scaling-stroke" d="
  M 104.84 319.05
  L 80.32 312.09
  A 0.20 0.20 0.0 0 0 80.07 312.31
  L 81.82 324.88"
/>
<path stroke="#f4b793" vector-effect="non-scaling-stroke" d="
  M 81.82 324.88
  Q 74.27 331.27 69.81 339.60
  Q 69.49 340.21 69.03 340.79"
/>
<path stroke="#8092a5" vector-effect="non-scaling-stroke" d="
  M 69.03 340.79
  Q 68.53 341.12 68.37 341.36
  C 58.13 356.58 54.22 372.87 54.30 391.25
  C 54.43 418.16 60.14 445.41 72.74 468.52
  Q 89.21 498.74 118.40 517.85
  Q 124.74 522.01 130.82 524.60
  A 0.90 0.88 -82.2 0 1 131.35 525.32
  L 132.90 537.89
  A 1.32 1.30 8.4 0 0 133.68 538.93
  Q 215.75 573.80 291.39 621.14"
/>
<path stroke="#81aac3" vector-effect="non-scaling-stroke" d="
  M 291.39 621.14
  C 299.36 626.49 309.13 628.06 318.48 628.13
  C 329.45 628.22 338.53 626.71 346.84 620.03"
/>
<path stroke="#81bdd7" vector-effect="non-scaling-stroke" d="
  M 346.84 620.03
  C 387.55 594.05 430.00 570.68 473.87 551.63"
/>
<path stroke="#81aac3" vector-effect="non-scaling-stroke" d="
  M 473.87 551.63
  L 503.24 539.06
  A 2.35 2.34 -9.4 0 0 504.65 537.09
  L 505.08 531.42"
/>
<path stroke="#8092a5" vector-effect="non-scaling-stroke" d="
  M 505.08 531.42
  L 505.66 525.91
  A 0.95 0.95 0.0 0 1 506.23 525.14
  C 537.47 511.78 561.18 483.84 573.15 452.41
  Q 584.70 422.06 583.94 390.07
  Q 583.77 382.95 581.90 374.30
  Q 578.85 360.21 572.91 347.26"
/>
<path stroke="#f4b793" vector-effect="non-scaling-stroke" d="
  M 572.91 347.26
  Q 568.60 338.63 561.29 330.45
  Q 558.83 327.70 556.27 325.03"
/>
<path stroke="#81bdd7" vector-effect="non-scaling-stroke" d="
  M 556.27 325.03
  L 557.98 312.59
  A 0.61 0.61 0.0 0 0 557.20 311.93
  L 534.98 318.72"
/>
<path stroke="#ebf3f7" vector-effect="non-scaling-stroke" d="
  M 534.98 318.72
  Q 531.18 313.17 528.86 307.22
  A 1.11 1.11 0.0 0 0 526.73 307.82
  L 529.05 320.68"
/>
<path stroke="#81bdd7" vector-effect="non-scaling-stroke" d="
  M 529.05 320.68
  Q 501.74 330.13 475.21 341.82"
/>
<path stroke="#ebf3f7" vector-effect="non-scaling-stroke" d="
  M 475.21 341.82
  Q 470.59 339.65 466.58 340.62
  C 462.15 341.68 457.34 342.49 453.52 343.60
  Q 417.65 353.93 388.23 369.74
  Q 376.28 376.16 358.61 388.24
  A 0.19 0.18 53.1 0 1 358.36 388.20
  L 358.35 388.19
  A 0.21 0.20 -39.8 0 1 358.38 387.91
  Q 367.66 379.97 373.38 375.88
  Q 384.53 367.89 409.03 352.21
  C 410.64 351.18 412.95 349.32 414.40 347.79
  A 1.65 1.65 0.0 0 0 414.38 345.49
  Q 414.36 345.48 413.72 345.31
  Q 410.22 344.39 405.82 345.39
  C 397.35 347.32 388.27 350.64 380.13 354.81
  Q 366.38 361.84 354.61 369.80
  C 351.09 372.18 347.04 375.73 343.26 378.84
  A 0.45 0.45 0.0 0 1 342.53 378.54
  Q 342.53 378.48 342.41 378.21"
/>
<path stroke="#8092a5" vector-effect="non-scaling-stroke" d="
  M 342.41 378.21
  Q 359.02 363.95 381.78 349.55
  Q 424.53 322.53 467.51 307.77
  Q 470.00 306.91 471.59 306.50
  A 1.25 1.25 0.0 0 1 473.13 307.44
  L 475.66 319.04
  A 0.68 0.68 0.0 0 0 476.54 319.54
  Q 496.89 312.70 520.23 307.50
  A 0.89 0.88 73.5 0 0 520.86 306.33
  C 514.92 290.38 503.83 275.67 492.68 262.03
  A 1.79 1.77 39.4 0 1 492.48 260.07
  Q 510.78 224.93 511.14 184.73
  C 511.27 170.77 509.21 158.26 504.77 144.80
  Q 502.30 137.32 500.49 129.08
  A 1.14 1.14 0.0 0 1 500.76 128.06
  C 505.74 122.53 512.56 116.24 517.68 109.60
  Q 535.41 86.66 541.35 57.56
  C 544.75 40.93 545.56 25.24 545.16 7.90
  A 0.47 0.47 0.0 0 0 544.39 7.55
  C 514.97 32.08 477.81 45.46 440.24 49.17
  C 431.02 50.08 422.01 47.77 412.99 45.31
  Q 390.88 39.29 379.29 36.98
  Q 353.86 31.93 327.77 31.21
  Q 285.08 30.03 242.49 40.98
  C 227.43 44.84 219.57 47.12 207.86 49.00
  Q 202.72 49.82 195.62 49.23
  Q 177.94 47.76 156.49 41.31
  Q 121.27 30.70 93.04 7.41
  A 0.60 0.60 0.0 0 0 92.05 7.85
  Q 91.56 20.83 92.34 32.74
  C 93.58 51.72 97.58 70.28 105.63 86.96
  Q 116.66 109.78 136.32 127.53
  A 1.92 1.92 0.0 0 1 136.91 129.40
  Q 135.71 134.52 133.54 141.03
  Q 126.77 161.43 126.60 180.95
  C 126.37 207.79 130.61 235.29 143.70 258.62
  A 1.28 1.28 0.0 0 1 143.59 260.04
  Q 127.10 281.07 116.48 307.02"
/>
<path stroke="#6c859d" vector-effect="non-scaling-stroke" d="
  M 342.41 378.21
  Q 329.96 388.60 318.36 400.90"
/>
<path stroke="#8092a5" vector-effect="non-scaling-stroke" d="
  M 318.36 400.90
  Q 317.41 399.11 315.45 397.04
  Q 301.87 382.72 288.12 371.89
  Q 268.82 356.70 247.93 344.58
  Q 209.14 322.08 166.24 306.90
  A 0.82 0.82 0.0 0 0 165.17 307.48
  L 162.27 319.54
  A 0.58 0.58 0.0 0 1 161.54 319.96
  L 146.34 315.32"
/>
<path stroke="#6c859d" vector-effect="non-scaling-stroke" d="
  M 146.34 315.32
  L 116.48 307.02"
/>
<path stroke="#ebf3f7" vector-effect="non-scaling-stroke" d="
  M 146.34 315.32
  Q 144.93 315.20 144.35 315.56
  A 0.38 0.38 0.0 0 0 144.40 316.24
  Q 148.32 317.89 159.85 321.75
  Q 172.69 326.03 199.62 338.30
  Q 201.76 339.27 212.48 344.21
  Q 218.23 346.86 224.96 350.68
  Q 239.68 359.04 252.99 367.20
  Q 256.97 369.63 259.28 371.43
  C 264.38 375.39 269.43 378.57 274.09 382.28
  Q 298.24 401.50 316.47 418.62
  Q 317.21 419.33 318.05 419.30
  A 0.90 0.90 0.0 0 0 318.92 418.30
  Q 317.87 408.83 318.36 400.90"
/>
<path stroke="#6db1cf" vector-effect="non-scaling-stroke" d="
  M 475.21 341.82
  Q 417.07 367.40 363.49 401.74
  Q 359.13 404.53 348.72 412.21"
/>
<path stroke="#6d9ebb" vector-effect="non-scaling-stroke" d="
  M 348.72 412.21
  Q 345.36 414.51 342.77 416.24
  Q 333.85 422.23 322.76 422.62
  C 314.80 422.90 306.44 422.17 299.44 418.08
  Q 296.48 416.34 291.64 412.45"
/>
<path stroke="#6c859d" vector-effect="non-scaling-stroke" d="
  M 291.64 412.45
  Q 271.37 397.50 249.05 384.53
  C 226.32 371.32 199.81 357.71 174.37 346.13
  Q 139.89 330.43 104.84 319.05"
/>
<path stroke="#023d68" vector-effect="non-scaling-stroke" d="
  M 291.64 412.45
  Q 290.81 424.57 290.88 436.25
  Q 291.30 501.23 291.40 568.96
  Q 291.43 586.24 292.42 619.67
  A 1.05 1.05 0.0 0 1 292.09 620.48
  L 291.39 621.14"
/>
<path stroke="#754a39" vector-effect="non-scaling-stroke" d="
  M 69.03 340.79
  Q 69.31 340.88 69.48 341.03
  Q 69.66 341.21 69.62 341.52
  C 68.96 345.70 68.70 348.98 67.69 352.53
  C 64.18 364.78 61.27 376.29 67.95 388.24
  C 75.23 401.29 86.04 409.60 99.60 416.20
  Q 110.83 421.66 119.84 422.42
  C 126.42 422.98 130.73 423.42 136.50 423.04
  A 0.35 0.35 0.0 0 1 136.80 423.61
  C 128.59 433.62 117.30 437.76 105.00 440.44
  A 0.68 0.68 0.0 0 0 104.47 441.20
  Q 104.50 441.41 104.73 441.77
  Q 112.70 454.55 126.34 459.86
  C 132.02 462.08 137.72 463.74 143.76 464.44
  Q 156.04 465.87 167.77 465.36
  A 0.31 0.30 -85.5 0 1 168.08 465.73
  Q 168.01 466.06 167.67 466.42
  Q 164.02 470.35 161.44 472.66
  C 154.29 479.06 144.51 481.84 134.50 484.31
  A 0.86 0.86 0.0 0 0 133.96 485.56
  Q 141.83 499.86 157.52 505.29
  C 166.37 508.35 174.61 508.26 183.36 504.33
  Q 200.21 496.77 209.26 479.80
  Q 212.11 474.47 213.65 469.39"
/>
<path stroke="#7f583f" vector-effect="non-scaling-stroke" d="
  M 213.65 469.39
  C 201.16 458.02 199.65 442.31 205.18 427.46
  A 0.62 0.61 -65.9 0 0 204.90 426.71
  C 201.39 424.79 198.55 423.07 196.19 419.87
  Q 191.10 412.98 190.03 404.19"
/>
<path stroke="#754a39" vector-effect="non-scaling-stroke" d="
  M 190.03 404.19
  L 189.60 398.94
  A 0.82 0.81 79.8 0 0 188.57 398.22
  Q 167.67 404.07 148.25 404.25
  Q 143.29 404.30 137.02 403.43
  Q 118.46 400.85 100.20 394.44
  Q 95.15 392.67 91.76 390.92
  C 85.56 387.70 82.10 386.10 79.12 380.92
  Q 74.17 372.30 73.12 361.99
  Q 72.77 358.54 73.42 357.14
  Q 73.96 356.00 74.65 356.58
  A 0.22 0.21 10.7 0 1 74.72 356.68
  L 76.12 363.11
  A 0.47 0.47 0.0 0 0 77.04 363.14
  Q 77.32 362.20 81.56 352.80
  C 85.69 343.64 83.75 334.41 81.82 324.88"
/>
<path stroke="#76756b" vector-effect="non-scaling-stroke" d="
  M 556.27 325.03
  Q 553.99 334.87 553.32 344.47"
/>
<path stroke="#02507c" vector-effect="non-scaling-stroke" d="
  M 553.32 344.47
  Q 550.12 352.60 549.35 361.44
  A 2.10 2.09 78.7 0 1 548.24 363.11
  Q 539.24 367.88 530.22 371.79
  Q 523.57 374.68 511.15 378.15
  Q 481.76 386.37 459.08 392.08
  Q 449.10 394.60 439.87 398.31
  C 431.16 401.81 423.54 408.80 422.41 418.43
  C 422.01 421.89 423.04 426.43 421.43 430.84"
/>
<path stroke="#03689a" vector-effect="non-scaling-stroke" d="
  M 421.43 430.84
  C 418.65 433.30 416.27 436.56 413.97 438.83
  C 411.90 440.87 410.28 443.44 408.13 445.85
  Q 403.69 450.81 397.67 458.69
  A 4.21 4.16 -24.6 0 0 396.83 460.91
  Q 395.30 481.84 402.07 501.02
  C 404.42 507.69 408.65 514.34 412.89 520.12
  Q 420.81 530.90 431.86 537.74
  C 438.12 541.61 445.81 544.36 453.24 546.73
  Q 461.64 549.41 471.01 549.86
  Q 471.87 549.90 473.87 551.63"
/>
<path stroke="#03689a" vector-effect="non-scaling-stroke" d="
  M 346.84 620.03
  C 346.69 617.23 346.35 614.40 346.39 611.64
  Q 347.29 549.24 347.61 486.82
  Q 347.62 484.59 347.65 482.37
  Q 348.10 447.71 348.72 412.21"
/>
<path stroke="#f37e2d" vector-effect="non-scaling-stroke" d="
  M 190.03 404.19
  Q 189.88 404.31 189.71 403.99
  A 0.40 0.40 0.0 0 0 188.97 404.06
  C 187.75 407.98 187.18 411.77 185.64 415.44
  Q 178.82 431.70 165.64 443.12
  Q 162.72 445.64 160.76 447.47
  A 0.57 0.57 0.0 0 0 161.13 448.45
  C 173.66 448.85 186.24 446.25 198.77 442.90
  A 1.01 1.01 0.0 0 1 200.00 444.16
  Q 197.69 452.25 193.21 460.43
  Q 186.70 472.31 175.65 479.60
  A 0.59 0.58 38.1 0 0 175.78 480.64
  C 185.13 484.00 194.15 481.86 202.50 477.25
  Q 208.75 473.81 213.65 469.39"
/>
<path stroke="#7f583f" vector-effect="non-scaling-stroke" d="
  M 567.56 359.79
  Q 568.09 361.14 568.12 362.01
  C 568.36 369.84 565.96 379.83 559.65 384.65
  C 557.13 386.57 552.28 389.19 548.70 390.58
  Q 526.28 399.30 510.51 402.22
  Q 499.25 404.31 493.99 404.34
  Q 472.57 404.47 451.33 400.70
  A 1.27 1.26 -85.7 0 0 449.85 401.98
  C 450.12 412.09 446.36 421.71 436.68 426.17
  A 0.87 0.87 0.0 0 0 436.17 426.99
  Q 436.24 429.05 437.18 431.03"
/>
<path stroke="#754a39" vector-effect="non-scaling-stroke" d="
  M 437.18 431.03
  Q 437.72 434.69 437.90 441.24
  C 438.16 450.96 435.14 462.78 426.93 468.38
  A 1.80 1.79 63.4 0 0 426.25 470.44
  C 431.91 486.81 443.82 500.11 460.44 505.59
  C 468.69 508.30 477.08 507.96 484.84 504.89
  Q 499.47 499.11 506.72 485.18
  A 0.62 0.62 0.0 0 0 506.27 484.28
  Q 499.60 483.18 492.35 480.14
  Q 480.67 475.25 472.89 465.32
  A 0.30 0.30 0.0 0 1 473.15 464.84
  Q 489.06 465.97 503.97 463.24
  Q 525.63 459.27 536.39 441.25
  A 0.52 0.52 0.0 0 0 536.07 440.48
  Q 522.30 437.19 509.07 429.67"
/>
<path stroke="#7f583f" vector-effect="non-scaling-stroke" d="
  M 509.07 429.67
  L 503.20 423.94"
/>
<path stroke="#754a39" vector-effect="non-scaling-stroke" d="
  M 503.20 423.94
  L 503.19 423.40
  A 0.38 0.38 0.0 0 1 503.59 423.02
  C 515.87 423.75 526.62 422.03 538.29 416.70
  Q 552.36 410.27 564.14 400.20"
/>
<path stroke="#7f583f" vector-effect="non-scaling-stroke" d="
  M 564.14 400.20
  Q 569.96 393.38 573.50 385.48
  C 577.82 375.84 576.02 366.10 573.28 356.00"
/>
<path stroke="#023d68" vector-effect="non-scaling-stroke" d="
  M 505.08 531.42
  Q 477.31 536.09 451.81 526.13
  C 440.66 521.77 430.93 515.27 423.32 506.92
  Q 416.33 499.24 412.40 488.59
  C 408.05 476.78 409.97 462.30 414.66 450.63
  C 418.00 442.35 420.88 436.57 421.43 430.84"
/>
<path stroke="#6db1cf" vector-effect="non-scaling-stroke" d="
  M 534.98 318.72
  L 529.05 320.68"
/>
<path stroke="#754a39" vector-effect="non-scaling-stroke" d="
  M 572.91 347.26
  Q 572.07 351.48 573.28 356.00"
/>
<path stroke="#f37e2d" vector-effect="non-scaling-stroke" d="
  M 573.28 356.00
  L 567.56 359.79"
/>
<path stroke="#754a39" vector-effect="non-scaling-stroke" d="
  M 567.56 359.79
  L 567.09 359.18
  A 0.66 0.66 0.0 0 0 565.94 359.37
  L 563.95 365.09
  A 0.52 0.52 0.0 0 1 563.04 365.22
  Q 562.76 364.90 562.51 364.02
  Q 561.12 359.09 559.60 356.17
  Q 556.87 350.92 553.32 344.47"
/>
<path stroke="#f37e2d" vector-effect="non-scaling-stroke" d="
  M 564.14 400.20
  Q 561.05 400.23 557.12 401.87
  C 552.35 403.86 547.10 406.56 542.18 408.19
  Q 522.85 414.60 501.56 418.05
  Q 498.13 418.61 488.01 419.97
  A 0.14 0.14 0.0 0 0 488.00 420.25
  L 503.20 423.94"
/>
<path stroke="#f37e2d" vector-effect="non-scaling-stroke" d="
  M 509.07 429.67
  Q 512.79 439.48 522.37 444.42
  A 0.43 0.42 43.6 0 1 522.39 445.17
  C 513.95 449.93 504.99 448.52 494.68 447.03
  Q 478.63 444.70 461.15 439.84
  Q 456.88 438.65 449.15 435.52
  Q 443.23 433.13 437.18 431.03"
/>
<path stroke="#754a39" vector-effect="non-scaling-stroke" d="
  M 133.23 78.78
  C 147.26 107.34 174.91 120.57 203.96 128.33
  Q 212.05 130.50 232.46 134.33
  C 257.86 139.11 280.48 156.44 296.78 177.02
  A 1.24 1.24 0.0 0 0 298.43 177.29
  Q 302.52 174.63 309.08 172.53"
/>
<path stroke="#7f583f" vector-effect="non-scaling-stroke" d="
  M 309.08 172.53
  L 319.44 172.17"
/>
<path stroke="#754a39" vector-effect="non-scaling-stroke" d="
  M 319.44 172.17
  Q 330.83 171.55 340.34 176.99
  A 0.49 0.47 -55.5 0 0 340.95 176.87
  C 358.63 154.84 382.15 139.00 409.85 133.58
  Q 422.38 131.13 432.97 128.48
  C 463.02 120.95 493.64 105.50 506.17 74.71"
/>
<path stroke="#7f583f" vector-effect="non-scaling-stroke" d="
  M 506.17 74.71
  Q 508.99 67.44 511.16 59.92
  Q 512.02 56.94 512.14 53.87
  A 0.35 0.34 67.3 0 0 511.54 53.62
  C 505.48 60.20 497.24 64.63 489.14 68.35
  Q 471.70 76.34 453.26 81.63"
/>
<path stroke="#02507c" vector-effect="non-scaling-stroke" d="
  M 453.26 81.63
  L 442.61 78.88
  A 0.85 0.84 -52.1 0 1 442.42 77.32
  Q 451.78 72.22 462.25 68.63
  A 0.18 0.17 74.6 0 0 462.36 68.43
  L 462.36 68.42
  A 0.21 0.20 -12.8 0 0 462.13 68.28
  C 444.10 71.54 425.52 73.09 407.74 70.18
  C 398.64 68.70 385.32 64.88 377.18 63.13
  Q 355.00 58.35 332.01 57.04
  Q 307.17 55.63 273.82 60.38
  Q 263.95 61.78 252.68 64.87
  Q 252.48 64.92 238.08 68.35
  C 222.98 71.94 205.95 73.08 191.89 71.10
  Q 187.91 70.54 174.27 68.35
  A 0.40 0.40 0.0 0 0 173.82 68.65
  L 173.82 68.66
  A 0.38 0.37 16.1 0 0 174.07 69.10
  Q 184.14 72.29 193.87 77.06
  A 0.89 0.89 0.0 0 1 193.68 78.73
  L 182.34 81.32"
/>
<path stroke="#7f583f" vector-effect="non-scaling-stroke" d="
  M 182.34 81.32
  Q 161.16 75.13 141.39 65.01
  C 135.45 61.97 130.12 58.41 125.80 53.35
  A 0.59 0.59 0.0 0 0 124.77 53.82
  Q 126.78 66.91 133.23 78.78"
/>
<path stroke="#808471" vector-effect="non-scaling-stroke" d="
  M 182.34 81.32
  Q 199.79 85.28 217.22 88.82
  C 229.16 91.25 239.71 94.03 249.67 97.87
  Q 261.92 102.59 274.34 110.65
  Q 299.01 126.64 314.07 152.16
  Q 316.60 156.44 317.89 159.69
  A 0.92 0.92 0.0 0 0 319.58 159.73
  C 322.12 154.13 323.33 151.07 326.39 146.52
  Q 347.14 115.70 381.68 100.70
  Q 398.57 93.37 416.43 89.66
  Q 439.31 84.91 453.26 81.63"
/>
<path stroke="#f37e2d" vector-effect="non-scaling-stroke" d="
  M 506.17 74.71
  L 503.87 78.20
  A 1.41 1.40 7.9 0 1 503.14 78.75
  Q 500.19 79.64 498.28 81.31
  C 493.29 85.65 487.33 90.60 480.93 94.04
  Q 471.87 98.90 464.00 101.71
  C 453.87 105.32 443.01 108.79 430.73 111.49
  Q 425.50 112.64 407.97 117.78
  Q 397.03 120.98 389.05 124.23
  Q 387.84 124.72 370.85 132.58
  Q 366.52 134.58 361.60 138.11
  C 349.01 147.13 337.56 156.89 327.48 168.73
  Q 326.35 170.05 325.91 171.36
  A 0.72 0.72 0.0 0 1 325.26 171.85
  L 319.44 172.17"
/>
<path stroke="#f37e2d" vector-effect="non-scaling-stroke" d="
  M 309.08 172.53
  Q 305.82 166.98 299.53 160.48
  Q 288.43 149.01 285.58 146.53
  C 275.73 137.94 264.92 131.52 253.04 126.52
  Q 248.19 124.48 234.22 119.77
  Q 225.91 116.97 214.98 114.32
  Q 205.18 111.95 184.91 106.30
  C 170.84 102.38 158.09 97.31 146.28 88.98
  Q 139.49 84.20 133.23 78.78"
/>
<path stroke="#023d68" vector-effect="non-scaling-stroke" d="
  M 153.52 200.87
  Q 153.54 201.70 153.30 202.36
  A 1.68 1.59 -43.4 0 0 153.25 203.28
  Q 154.33 207.60 154.97 211.26
  Q 155.92 216.69 156.83 219.25
  C 157.94 222.38 159.20 227.71 160.91 231.58
  Q 169.73 251.62 185.07 266.45
  C 197.13 278.11 212.31 289.67 227.90 297.89
  Q 236.36 302.35 243.58 306.94
  Q 259.71 317.20 278.61 330.64
  Q 284.17 334.59 302.67 350.09"
/>
<path stroke="#02507c" vector-effect="non-scaling-stroke" d="
  M 302.67 350.09
  L 317.04 364.03
  A 1.19 1.18 -45.5 0 0 318.71 364.01
  Q 342.26 340.22 370.04 321.82
  Q 385.81 311.38 409.66 298.42
  Q 420.19 292.69 425.99 288.43
  Q 440.72 277.62 452.31 265.41
  C 456.99 260.49 462.11 253.43 465.00 249.01
  C 468.95 242.96 472.13 237.35 474.74 230.13
  Q 479.15 217.93 481.69 204.96"
/>
<path stroke="#7f583f" vector-effect="non-scaling-stroke" d="
  M 481.69 204.96
  Q 483.51 196.64 483.76 192.25
  Q 485.03 169.89 477.32 148.96
  C 475.21 143.25 472.03 138.37 469.40 133.25
  A 0.88 0.87 -22.6 0 0 468.35 132.82
  L 457.27 136.42
  A 0.54 0.53 -21.5 0 0 456.95 137.14
  Q 467.94 162.03 461.16 188.70
  Q 457.96 201.26 450.02 210.63"
/>
<path stroke="#754a39" vector-effect="non-scaling-stroke" d="
  M 450.02 210.63
  Q 449.78 210.62 449.60 210.58
  A 0.62 0.62 0.0 0 1 449.11 209.86
  Q 452.00 195.08 451.09 180.01
  Q 450.96 177.96 450.65 175.70"
/>
<path stroke="#8092a5" vector-effect="non-scaling-stroke" d="
  M 450.65 175.70
  Q 449.37 156.71 438.25 141.02
  A 0.60 0.58 64.8 0 0 437.62 140.78
  Q 427.34 143.14 414.62 145.86
  Q 411.88 146.45 409.17 147.50
  A 1.17 1.16 -2.8 0 0 408.48 148.25
  Q 408.36 148.66 408.38 149.05
  A 0.66 0.65 83.6 0 1 407.84 149.73
  C 400.69 150.92 394.26 155.61 393.91 163.36
  C 393.39 175.17 406.97 183.05 416.76 176.55
  Q 422.26 172.89 423.90 166.90
  A 0.41 0.41 0.0 0 1 424.64 166.80
  C 428.01 172.42 426.84 181.56 424.38 187.46
  Q 419.41 199.39 407.22 204.09
  C 399.50 207.06 389.65 206.62 382.60 202.60
  Q 368.10 194.33 365.95 176.97
  A 0.55 0.55 0.0 0 0 364.94 176.73
  L 355.24 191.35
  A 1.07 1.07 0.0 0 0 355.30 192.61
  Q 364.67 204.37 367.50 219.21"
/>
<path stroke="#754a39" vector-effect="non-scaling-stroke" d="
  M 367.50 219.21
  Q 368.99 229.99 365.57 240.21"
/>
<path stroke="#7f583f" vector-effect="non-scaling-stroke" d="
  M 365.57 240.21
  L 361.14 250.96"
/>
<path stroke="#023d68" vector-effect="non-scaling-stroke" d="
  M 361.14 250.96
  Q 360.79 251.52 360.06 252.74
  Q 356.19 259.12 350.79 266.54
  Q 348.54 269.63 336.88 281.88
  C 331.62 287.39 325.73 291.54 319.54 296.22
  A 1.57 1.56 42.3 0 1 317.78 296.30
  Q 306.56 289.36 297.21 279.05
  Q 288.24 269.17 284.99 264.25
  Q 283.11 261.42 277.01 249.82"
/>
<path stroke="#754a39" vector-effect="non-scaling-stroke" d="
  M 277.01 249.82
  Q 275.73 247.04 273.33 240.68
  Q 269.41 230.24 271.30 219.08"
/>
<path stroke="#8092a5" vector-effect="non-scaling-stroke" d="
  M 271.30 219.08
  Q 272.64 211.19 276.06 203.59
  C 277.54 200.29 280.16 196.45 281.67 194.06
  A 2.93 2.92 -45.5 0 0 281.65 190.88
  L 273.52 178.50
  A 0.33 0.33 0.0 0 0 272.92 178.62
  Q 270.24 193.38 258.39 201.03
  C 242.21 211.47 220.34 204.42 213.82 186.42
  C 209.68 175.00 213.24 159.91 223.28 152.22
  Q 226.81 149.51 230.94 147.72
  A 0.38 0.37 -50.9 0 0 230.87 147.01
  L 201.53 141.19
  A 1.44 1.43 22.5 0 0 200.07 141.79
  Q 190.95 155.17 188.57 170.98"
/>
<path stroke="#754a39" vector-effect="non-scaling-stroke" d="
  M 188.57 170.98
  Q 187.65 173.93 187.33 177.00
  Q 185.54 193.96 189.55 209.88
  A 0.55 0.55 0.0 0 1 188.61 210.38
  Q 182.10 203.24 179.17 194.09
  Q 170.11 165.72 182.75 138.72
  A 0.67 0.67 0.0 0 0 182.37 137.81
  L 167.52 132.52
  A 0.95 0.95 0.0 0 0 166.37 132.96
  Q 148.91 164.61 153.52 200.87"
/>
<path stroke="#f4b793" vector-effect="non-scaling-stroke" d="
  M 188.57 170.98
  Q 188.83 172.77 189.11 177.11
  C 190.04 191.20 199.71 207.84 210.65 216.41
  C 228.49 230.40 252.02 230.63 271.30 219.08"
/>
<path stroke="#766257" vector-effect="non-scaling-stroke" d="
  M 277.01 249.82
  Q 276.29 251.06 275.71 251.42
  Q 253.64 265.19 228.24 263.15
  Q 211.10 261.76 197.95 255.05
  Q 175.99 243.85 162.31 221.17
  Q 159.82 217.03 158.50 213.47
  Q 156.18 207.19 153.52 200.87"
/>
<path stroke="#03689a" vector-effect="non-scaling-stroke" d="
  M 376.37 258.62
  Q 375.87 261.71 375.30 262.80
  C 370.90 271.11 364.38 280.43 360.56 286.71
  Q 354.86 296.08 353.29 298.29
  Q 342.79 313.02 329.18 326.68
  Q 315.35 340.58 302.67 350.09"
/>
<path stroke="#808471" vector-effect="non-scaling-stroke" d="
  M 481.69 204.96
  Q 479.11 210.67 476.65 216.06
  Q 473.24 223.51 470.97 226.84
  C 462.22 239.64 450.39 251.00 436.20 257.20
  C 416.74 265.69 396.57 265.26 376.37 258.62"
/>
<path stroke="#80715d" vector-effect="non-scaling-stroke" d="
  M 376.37 258.62
  Q 368.19 255.99 361.14 250.96"
/>
<path stroke="#f37e2d" vector-effect="non-scaling-stroke" d="
  M 365.57 240.21
  Q 370.16 242.28 372.32 242.66
  Q 389.07 245.59 405.47 242.44
  C 414.63 240.68 423.83 235.85 431.44 230.66
  Q 437.81 226.31 443.09 219.85
  Q 443.72 219.08 446.38 215.14
  Q 447.99 212.74 450.02 210.63"
/>
<path stroke="#f4b793" vector-effect="non-scaling-stroke" d="
  M 450.65 175.70
  C 446.00 203.17 427.65 227.45 397.38 227.40
  Q 385.05 227.38 373.32 221.86
  Q 370.52 220.54 367.50 219.21"
/>
<path stroke="#8092a5" vector-effect="non-scaling-stroke" d="
  M 242.8495 159.5809
  A 14.38 14.15 -144.8 0 0 246.4435 179.4326
  A 14.38 14.15 -144.8 0 0 266.3505 176.1591
  A 14.38 14.15 -144.8 0 0 262.7565 156.3074
  A 14.38 14.15 -144.8 0 0 242.8495 159.5809"
/>
<path stroke="#6c859d" vector-effect="non-scaling-stroke" d="
  M 297.69 198.67
  Q 293.68 203.55 291.04 209.40
  Q 288.43 215.20 288.23 221.63
  Q 287.96 229.90 290.47 236.98
  Q 296.56 254.16 309.60 270.78"
/>
<path stroke="#8092a5" vector-effect="non-scaling-stroke" d="
  M 309.60 270.78
  L 312.76 276.77
  A 3.94 3.76 -84.3 0 0 313.65 277.91
  L 318.69 282.36
  A 1.45 1.45 0.0 0 0 320.70 282.27
  L 325.77 276.97
  A 3.62 3.35 -10.8 0 0 326.25 276.32
  Q 327.77 273.59 331.97 268.25
  Q 336.50 262.50 341.15 254.14
  C 347.76 242.27 351.34 231.98 350.64 219.62
  C 350.11 210.17 342.83 199.04 336.19 193.09
  Q 331.41 188.81 324.54 188.77
  Q 315.68 188.71 310.18 189.40
  A 5.43 5.16 -57.7 0 0 308.95 189.71
  Q 302.07 192.26 297.69 198.67"
/>
<path stroke="#ebf3f7" vector-effect="non-scaling-stroke" d="
  M 309.60 270.78
  Q 313.18 272.75 317.41 271.79
  A 0.47 0.47 0.0 0 0 317.73 271.13
  Q 313.08 261.48 309.12 249.79
  Q 304.69 236.71 304.94 227.41
  Q 305.26 215.48 309.87 205.08
  C 311.94 200.40 314.90 196.78 318.48 193.26
  A 0.55 0.55 0.0 0 0 318.14 192.33
  C 315.10 192.05 310.78 193.48 304.39 195.14
  A 1.86 1.57 -61.2 0 0 304.00 195.29
  L 297.69 198.67"
/>
<path stroke="#2c94bf" vector-effect="non-scaling-stroke" d="
  M 317.15 100.39
  Q 317.62 100.39 317.99 100.00
  Q 332.84 83.96 354.28 78.84
  Q 354.82 78.71 355.04 78.37
  A 0.48 0.48 0.0 0 0 354.73 77.63
  Q 335.79 73.90 317.25 73.83
  Q 298.71 73.76 279.75 77.36
  A 0.48 0.48 0.0 0 0 279.43 78.09
  Q 279.65 78.43 280.19 78.57
  Q 301.59 83.85 316.32 99.99
  Q 316.69 100.39 317.15 100.39"
/>
<path stroke="#ebf3f7" vector-effect="non-scaling-stroke" d="
  M 313.58 247.62
  Q 313.04 242.81 312.62 238.75
  Q 311.15 224.47 313.38 211.43
  A 0.54 0.54 0.0 0 0 312.41 211.02
  C 308.24 216.64 307.93 223.11 308.01 230.33
  Q 308.10 237.64 311.27 244.99
  Q 312.02 246.71 313.22 247.81
  A 0.22 0.22 0.0 0 0 313.58 247.62"
/>
</g>
<path fill="#ffffff" d="
  M 637.00 0.00
  L 637.00 637.00
  L 0.00 637.00
  L 0.00 0.00
  L 637.00 0.00
  Z
  M 116.48 307.02
  Q 113.62 305.19 109.44 305.11
  A 0.92 0.92 0.0 0 0 108.54 305.78
  L 104.84 319.05
  L 80.32 312.09
  A 0.20 0.20 0.0 0 0 80.07 312.31
  L 81.82 324.88
  Q 74.27 331.27 69.81 339.60
  Q 69.49 340.21 69.03 340.79
  Q 68.53 341.12 68.37 341.36
  C 58.13 356.58 54.22 372.87 54.30 391.25
  C 54.43 418.16 60.14 445.41 72.74 468.52
  Q 89.21 498.74 118.40 517.85
  Q 124.74 522.01 130.82 524.60
  A 0.90 0.88 -82.2 0 1 131.35 525.32
  L 132.90 537.89
  A 1.32 1.30 8.4 0 0 133.68 538.93
  Q 215.75 573.80 291.39 621.14
  C 299.36 626.49 309.13 628.06 318.48 628.13
  C 329.45 628.22 338.53 626.71 346.84 620.03
  C 387.55 594.05 430.00 570.68 473.87 551.63
  L 503.24 539.06
  A 2.35 2.34 -9.4 0 0 504.65 537.09
  L 505.08 531.42
  L 505.66 525.91
  A 0.95 0.95 0.0 0 1 506.23 525.14
  C 537.47 511.78 561.18 483.84 573.15 452.41
  Q 584.70 422.06 583.94 390.07
  Q 583.77 382.95 581.90 374.30
  Q 578.85 360.21 572.91 347.26
  Q 568.60 338.63 561.29 330.45
  Q 558.83 327.70 556.27 325.03
  L 557.98 312.59
  A 0.61 0.61 0.0 0 0 557.20 311.93
  L 534.98 318.72
  Q 531.18 313.17 528.86 307.22
  A 1.11 1.11 0.0 0 0 526.73 307.82
  L 529.05 320.68
  Q 501.74 330.13 475.21 341.82
  Q 470.59 339.65 466.58 340.62
  C 462.15 341.68 457.34 342.49 453.52 343.60
  Q 417.65 353.93 388.23 369.74
  Q 376.28 376.16 358.61 388.24
  A 0.19 0.18 53.1 0 1 358.36 388.20
  L 358.35 388.19
  A 0.21 0.20 -39.8 0 1 358.38 387.91
  Q 367.66 379.97 373.38 375.88
  Q 384.53 367.89 409.03 352.21
  C 410.64 351.18 412.95 349.32 414.40 347.79
  A 1.65 1.65 0.0 0 0 414.38 345.49
  Q 414.36 345.48 413.72 345.31
  Q 410.22 344.39 405.82 345.39
  C 397.35 347.32 388.27 350.64 380.13 354.81
  Q 366.38 361.84 354.61 369.80
  C 351.09 372.18 347.04 375.73 343.26 378.84
  A 0.45 0.45 0.0 0 1 342.53 378.54
  Q 342.53 378.48 342.41 378.21
  Q 359.02 363.95 381.78 349.55
  Q 424.53 322.53 467.51 307.77
  Q 470.00 306.91 471.59 306.50
  A 1.25 1.25 0.0 0 1 473.13 307.44
  L 475.66 319.04
  A 0.68 0.68 0.0 0 0 476.54 319.54
  Q 496.89 312.70 520.23 307.50
  A 0.89 0.88 73.5 0 0 520.86 306.33
  C 514.92 290.38 503.83 275.67 492.68 262.03
  A 1.79 1.77 39.4 0 1 492.48 260.07
  Q 510.78 224.93 511.14 184.73
  C 511.27 170.77 509.21 158.26 504.77 144.80
  Q 502.30 137.32 500.49 129.08
  A 1.14 1.14 0.0 0 1 500.76 128.06
  C 505.74 122.53 512.56 116.24 517.68 109.60
  Q 535.41 86.66 541.35 57.56
  C 544.75 40.93 545.56 25.24 545.16 7.90
  A 0.47 0.47 0.0 0 0 544.39 7.55
  C 514.97 32.08 477.81 45.46 440.24 49.17
  C 431.02 50.08 422.01 47.77 412.99 45.31
  Q 390.88 39.29 379.29 36.98
  Q 353.86 31.93 327.77 31.21
  Q 285.08 30.03 242.49 40.98
  C 227.43 44.84 219.57 47.12 207.86 49.00
  Q 202.72 49.82 195.62 49.23
  Q 177.94 47.76 156.49 41.31
  Q 121.27 30.70 93.04 7.41
  A 0.60 0.60 0.0 0 0 92.05 7.85
  Q 91.56 20.83 92.34 32.74
  C 93.58 51.72 97.58 70.28 105.63 86.96
  Q 116.66 109.78 136.32 127.53
  A 1.92 1.92 0.0 0 1 136.91 129.40
  Q 135.71 134.52 133.54 141.03
  Q 126.77 161.43 126.60 180.95
  C 126.37 207.79 130.61 235.29 143.70 258.62
  A 1.28 1.28 0.0 0 1 143.59 260.04
  Q 127.10 281.07 116.48 307.02
  Z"
/>
<path fill="#00244a" d="
  M 342.41 378.21
  Q 329.96 388.60 318.36 400.90
  Q 317.41 399.11 315.45 397.04
  Q 301.87 382.72 288.12 371.89
  Q 268.82 356.70 247.93 344.58
  Q 209.14 322.08 166.24 306.90
  A 0.82 0.82 0.0 0 0 165.17 307.48
  L 162.27 319.54
  A 0.58 0.58 0.0 0 1 161.54 319.96
  L 146.34 315.32
  L 116.48 307.02
  Q 127.10 281.07 143.59 260.04
  A 1.28 1.28 0.0 0 0 143.70 258.62
  C 130.61 235.29 126.37 207.79 126.60 180.95
  Q 126.77 161.43 133.54 141.03
  Q 135.71 134.52 136.91 129.40
  A 1.92 1.92 0.0 0 0 136.32 127.53
  Q 116.66 109.78 105.63 86.96
  C 97.58 70.28 93.58 51.72 92.34 32.74
  Q 91.56 20.83 92.05 7.85
  A 0.60 0.60 0.0 0 1 93.04 7.41
  Q 121.27 30.70 156.49 41.31
  Q 177.94 47.76 195.62 49.23
  Q 202.72 49.82 207.86 49.00
  C 219.57 47.12 227.43 44.84 242.49 40.98
  Q 285.08 30.03 327.77 31.21
  Q 353.86 31.93 379.29 36.98
  Q 390.88 39.29 412.99 45.31
  C 422.01 47.77 431.02 50.08 440.24 49.17
  C 477.81 45.46 514.97 32.08 544.39 7.55
  A 0.47 0.47 0.0 0 1 545.16 7.90
  C 545.56 25.24 544.75 40.93 541.35 57.56
  Q 535.41 86.66 517.68 109.60
  C 512.56 116.24 505.74 122.53 500.76 128.06
  A 1.14 1.14 0.0 0 0 500.49 129.08
  Q 502.30 137.32 504.77 144.80
  C 509.21 158.26 511.27 170.77 511.14 184.73
  Q 510.78 224.93 492.48 260.07
  A 1.79 1.77 39.4 0 0 492.68 262.03
  C 503.83 275.67 514.92 290.38 520.86 306.33
  A 0.89 0.88 73.5 0 1 520.23 307.50
  Q 496.89 312.70 476.54 319.54
  A 0.68 0.68 0.0 0 1 475.66 319.04
  L 473.13 307.44
  A 1.25 1.25 0.0 0 0 471.59 306.50
  Q 470.00 306.91 467.51 307.77
  Q 424.53 322.53 381.78 349.55
  Q 359.02 363.95 342.41 378.21
  Z
  M 133.23 78.78
  C 147.26 107.34 174.91 120.57 203.96 128.33
  Q 212.05 130.50 232.46 134.33
  C 257.86 139.11 280.48 156.44 296.78 177.02
  A 1.24 1.24 0.0 0 0 298.43 177.29
  Q 302.52 174.63 309.08 172.53
  L 319.44 172.17
  Q 330.83 171.55 340.34 176.99
  A 0.49 0.47 -55.5 0 0 340.95 176.87
  C 358.63 154.84 382.15 139.00 409.85 133.58
  Q 422.38 131.13 432.97 128.48
  C 463.02 120.95 493.64 105.50 506.17 74.71
  Q 508.99 67.44 511.16 59.92
  Q 512.02 56.94 512.14 53.87
  A 0.35 0.34 67.3 0 0 511.54 53.62
  C 505.48 60.20 497.24 64.63 489.14 68.35
  Q 471.70 76.34 453.26 81.63
  L 442.61 78.88
  A 0.85 0.84 -52.1 0 1 442.42 77.32
  Q 451.78 72.22 462.25 68.63
  A 0.18 0.17 74.6 0 0 462.36 68.43
  L 462.36 68.42
  A 0.21 0.20 -12.8 0 0 462.13 68.28
  C 444.10 71.54 425.52 73.09 407.74 70.18
  C 398.64 68.70 385.32 64.88 377.18 63.13
  Q 355.00 58.35 332.01 57.04
  Q 307.17 55.63 273.82 60.38
  Q 263.95 61.78 252.68 64.87
  Q 252.48 64.92 238.08 68.35
  C 222.98 71.94 205.95 73.08 191.89 71.10
  Q 187.91 70.54 174.27 68.35
  A 0.40 0.40 0.0 0 0 173.82 68.65
  L 173.82 68.66
  A 0.38 0.37 16.1 0 0 174.07 69.10
  Q 184.14 72.29 193.87 77.06
  A 0.89 0.89 0.0 0 1 193.68 78.73
  L 182.34 81.32
  Q 161.16 75.13 141.39 65.01
  C 135.45 61.97 130.12 58.41 125.80 53.35
  A 0.59 0.59 0.0 0 0 124.77 53.82
  Q 126.78 66.91 133.23 78.78
  Z
  M 153.52 200.87
  Q 153.54 201.70 153.30 202.36
  A 1.68 1.59 -43.4 0 0 153.25 203.28
  Q 154.33 207.60 154.97 211.26
  Q 155.92 216.69 156.83 219.25
  C 157.94 222.38 159.20 227.71 160.91 231.58
  Q 169.73 251.62 185.07 266.45
  C 197.13 278.11 212.31 289.67 227.90 297.89
  Q 236.36 302.35 243.58 306.94
  Q 259.71 317.20 278.61 330.64
  Q 284.17 334.59 302.67 350.09
  L 317.04 364.03
  A 1.19 1.18 -45.5 0 0 318.71 364.01
  Q 342.26 340.22 370.04 321.82
  Q 385.81 311.38 409.66 298.42
  Q 420.19 292.69 425.99 288.43
  Q 440.72 277.62 452.31 265.41
  C 456.99 260.49 462.11 253.43 465.00 249.01
  C 468.95 242.96 472.13 237.35 474.74 230.13
  Q 479.15 217.93 481.69 204.96
  Q 483.51 196.64 483.76 192.25
  Q 485.03 169.89 477.32 148.96
  C 475.21 143.25 472.03 138.37 469.40 133.25
  A 0.88 0.87 -22.6 0 0 468.35 132.82
  L 457.27 136.42
  A 0.54 0.53 -21.5 0 0 456.95 137.14
  Q 467.94 162.03 461.16 188.70
  Q 457.96 201.26 450.02 210.63
  Q 449.78 210.62 449.60 210.58
  A 0.62 0.62 0.0 0 1 449.11 209.86
  Q 452.00 195.08 451.09 180.01
  Q 450.96 177.96 450.65 175.70
  Q 449.37 156.71 438.25 141.02
  A 0.60 0.58 64.8 0 0 437.62 140.78
  Q 427.34 143.14 414.62 145.86
  Q 411.88 146.45 409.17 147.50
  A 1.17 1.16 -2.8 0 0 408.48 148.25
  Q 408.36 148.66 408.38 149.05
  A 0.66 0.65 83.6 0 1 407.84 149.73
  C 400.69 150.92 394.26 155.61 393.91 163.36
  C 393.39 175.17 406.97 183.05 416.76 176.55
  Q 422.26 172.89 423.90 166.90
  A 0.41 0.41 0.0 0 1 424.64 166.80
  C 428.01 172.42 426.84 181.56 424.38 187.46
  Q 419.41 199.39 407.22 204.09
  C 399.50 207.06 389.65 206.62 382.60 202.60
  Q 368.10 194.33 365.95 176.97
  A 0.55 0.55 0.0 0 0 364.94 176.73
  L 355.24 191.35
  A 1.07 1.07 0.0 0 0 355.30 192.61
  Q 364.67 204.37 367.50 219.21
  Q 368.99 229.99 365.57 240.21
  L 361.14 250.96
  Q 360.79 251.52 360.06 252.74
  Q 356.19 259.12 350.79 266.54
  Q 348.54 269.63 336.88 281.88
  C 331.62 287.39 325.73 291.54 319.54 296.22
  A 1.57 1.56 42.3 0 1 317.78 296.30
  Q 306.56 289.36 297.21 279.05
  Q 288.24 269.17 284.99 264.25
  Q 283.11 261.42 277.01 249.82
  Q 275.73 247.04 273.33 240.68
  Q 269.41 230.24 271.30 219.08
  Q 272.64 211.19 276.06 203.59
  C 277.54 200.29 280.16 196.45 281.67 194.06
  A 2.93 2.92 -45.5 0 0 281.65 190.88
  L 273.52 178.50
  A 0.33 0.33 0.0 0 0 272.92 178.62
  Q 270.24 193.38 258.39 201.03
  C 242.21 211.47 220.34 204.42 213.82 186.42
  C 209.68 175.00 213.24 159.91 223.28 152.22
  Q 226.81 149.51 230.94 147.72
  A 0.38 0.37 -50.9 0 0 230.87 147.01
  L 201.53 141.19
  A 1.44 1.43 22.5 0 0 200.07 141.79
  Q 190.95 155.17 188.57 170.98
  Q 187.65 173.93 187.33 177.00
  Q 185.54 193.96 189.55 209.88
  A 0.55 0.55 0.0 0 1 188.61 210.38
  Q 182.10 203.24 179.17 194.09
  Q 170.11 165.72 182.75 138.72
  A 0.67 0.67 0.0 0 0 182.37 137.81
  L 167.52 132.52
  A 0.95 0.95 0.0 0 0 166.37 132.96
  Q 148.91 164.61 153.52 200.87
  Z
  M 242.8495 159.5809
  A 14.38 14.15 -144.8 0 0 246.4435 179.4326
  A 14.38 14.15 -144.8 0 0 266.3505 176.1591
  A 14.38 14.15 -144.8 0 0 262.7565 156.3074
  A 14.38 14.15 -144.8 0 0 242.8495 159.5809
  Z
  M 297.69 198.67
  Q 293.68 203.55 291.04 209.40
  Q 288.43 215.20 288.23 221.63
  Q 287.96 229.90 290.47 236.98
  Q 296.56 254.16 309.60 270.78
  L 312.76 276.77
  A 3.94 3.76 -84.3 0 0 313.65 277.91
  L 318.69 282.36
  A 1.45 1.45 0.0 0 0 320.70 282.27
  L 325.77 276.97
  A 3.62 3.35 -10.8 0 0 326.25 276.32
  Q 327.77 273.59 331.97 268.25
  Q 336.50 262.50 341.15 254.14
  C 347.76 242.27 351.34 231.98 350.64 219.62
  C 350.11 210.17 342.83 199.04 336.19 193.09
  Q 331.41 188.81 324.54 188.77
  Q 315.68 188.71 310.18 189.40
  A 5.43 5.16 -57.7 0 0 308.95 189.71
  Q 302.07 192.26 297.69 198.67
  Z"
/>
<path fill="#fd8c33" d="
  M 182.34 81.32
  Q 199.79 85.28 217.22 88.82
  C 229.16 91.25 239.71 94.03 249.67 97.87
  Q 261.92 102.59 274.34 110.65
  Q 299.01 126.64 314.07 152.16
  Q 316.60 156.44 317.89 159.69
  A 0.92 0.92 0.0 0 0 319.58 159.73
  C 322.12 154.13 323.33 151.07 326.39 146.52
  Q 347.14 115.70 381.68 100.70
  Q 398.57 93.37 416.43 89.66
  Q 439.31 84.91 453.26 81.63
  Q 471.70 76.34 489.14 68.35
  C 497.24 64.63 505.48 60.20 511.54 53.62
  A 0.35 0.34 67.3 0 1 512.14 53.87
  Q 512.02 56.94 511.16 59.92
  Q 508.99 67.44 506.17 74.71
  L 503.87 78.20
  A 1.41 1.40 7.9 0 1 503.14 78.75
  Q 500.19 79.64 498.28 81.31
  C 493.29 85.65 487.33 90.60 480.93 94.04
  Q 471.87 98.90 464.00 101.71
  C 453.87 105.32 443.01 108.79 430.73 111.49
  Q 425.50 112.64 407.97 117.78
  Q 397.03 120.98 389.05 124.23
  Q 387.84 124.72 370.85 132.58
  Q 366.52 134.58 361.60 138.11
  C 349.01 147.13 337.56 156.89 327.48 168.73
  Q 326.35 170.05 325.91 171.36
  A 0.72 0.72 0.0 0 1 325.26 171.85
  L 319.44 172.17
  L 309.08 172.53
  Q 305.82 166.98 299.53 160.48
  Q 288.43 149.01 285.58 146.53
  C 275.73 137.94 264.92 131.52 253.04 126.52
  Q 248.19 124.48 234.22 119.77
  Q 225.91 116.97 214.98 114.32
  Q 205.18 111.95 184.91 106.30
  C 170.84 102.38 158.09 97.31 146.28 88.98
  Q 139.49 84.20 133.23 78.78
  Q 126.78 66.91 124.77 53.82
  A 0.59 0.59 0.0 0 1 125.80 53.35
  C 130.12 58.41 135.45 61.97 141.39 65.01
  Q 161.16 75.13 182.34 81.32
  Z"
/>
<path fill="#037bae" d="
  M 453.26 81.63
  Q 439.31 84.91 416.43 89.66
  Q 398.57 93.37 381.68 100.70
  Q 347.14 115.70 326.39 146.52
  C 323.33 151.07 322.12 154.13 319.58 159.73
  A 0.92 0.92 0.0 0 1 317.89 159.69
  Q 316.60 156.44 314.07 152.16
  Q 299.01 126.64 274.34 110.65
  Q 261.92 102.59 249.67 97.87
  C 239.71 94.03 229.16 91.25 217.22 88.82
  Q 199.79 85.28 182.34 81.32
  L 193.68 78.73
  A 0.89 0.89 0.0 0 0 193.87 77.06
  Q 184.14 72.29 174.07 69.10
  A 0.38 0.37 16.1 0 1 173.82 68.66
  L 173.82 68.65
  A 0.40 0.40 0.0 0 1 174.27 68.35
  Q 187.91 70.54 191.89 71.10
  C 205.95 73.08 222.98 71.94 238.08 68.35
  Q 252.48 64.92 252.68 64.87
  Q 263.95 61.78 273.82 60.38
  Q 307.17 55.63 332.01 57.04
  Q 355.00 58.35 377.18 63.13
  C 385.32 64.88 398.64 68.70 407.74 70.18
  C 425.52 73.09 444.10 71.54 462.13 68.28
  A 0.21 0.20 -12.8 0 1 462.36 68.42
  L 462.36 68.43
  A 0.18 0.17 74.6 0 1 462.25 68.63
  Q 451.78 72.22 442.42 77.32
  A 0.85 0.84 -52.1 0 0 442.61 78.88
  L 453.26 81.63
  Z
  M 317.15 100.39
  Q 317.62 100.39 317.99 100.00
  Q 332.84 83.96 354.28 78.84
  Q 354.82 78.71 355.04 78.37
  A 0.48 0.48 0.0 0 0 354.73 77.63
  Q 335.79 73.90 317.25 73.83
  Q 298.71 73.76 279.75 77.36
  A 0.48 0.48 0.0 0 0 279.43 78.09
  Q 279.65 78.43 280.19 78.57
  Q 301.59 83.85 316.32 99.99
  Q 316.69 100.39 317.15 100.39
  Z"
/>
<path fill="#55adcf" d="
  M 317.25 73.83
  Q 335.79 73.90 354.73 77.63
  A 0.48 0.48 0.0 0 1 355.04 78.37
  Q 354.82 78.71 354.28 78.84
  Q 332.84 83.96 317.99 100.00
  Q 317.62 100.39 317.15 100.39
  Q 316.69 100.39 316.32 99.99
  Q 301.59 83.85 280.19 78.57
  Q 279.65 78.43 279.43 78.09
  A 0.48 0.48 0.0 0 1 279.75 77.36
  Q 298.71 73.76 317.25 73.83
  Z"
/>
<path fill="#e96f27" d="
  M 506.17 74.71
  C 493.64 105.50 463.02 120.95 432.97 128.48
  Q 422.38 131.13 409.85 133.58
  C 382.15 139.00 358.63 154.84 340.95 176.87
  A 0.49 0.47 -55.5 0 1 340.34 176.99
  Q 330.83 171.55 319.44 172.17
  L 325.26 171.85
  A 0.72 0.72 0.0 0 0 325.91 171.36
  Q 326.35 170.05 327.48 168.73
  C 337.56 156.89 349.01 147.13 361.60 138.11
  Q 366.52 134.58 370.85 132.58
  Q 387.84 124.72 389.05 124.23
  Q 397.03 120.98 407.97 117.78
  Q 425.50 112.64 430.73 111.49
  C 443.01 108.79 453.87 105.32 464.00 101.71
  Q 471.87 98.90 480.93 94.04
  C 487.33 90.60 493.29 85.65 498.28 81.31
  Q 500.19 79.64 503.14 78.75
  A 1.41 1.40 7.9 0 0 503.87 78.20
  L 506.17 74.71
  Z"
/>
<path fill="#e96f27" d="
  M 309.08 172.53
  Q 302.52 174.63 298.43 177.29
  A 1.24 1.24 0.0 0 1 296.78 177.02
  C 280.48 156.44 257.86 139.11 232.46 134.33
  Q 212.05 130.50 203.96 128.33
  C 174.91 120.57 147.26 107.34 133.23 78.78
  Q 139.49 84.20 146.28 88.98
  C 158.09 97.31 170.84 102.38 184.91 106.30
  Q 205.18 111.95 214.98 114.32
  Q 225.91 116.97 234.22 119.77
  Q 248.19 124.48 253.04 126.52
  C 264.92 131.52 275.73 137.94 285.58 146.53
  Q 288.43 149.01 299.53 160.48
  Q 305.82 166.98 309.08 172.53
  Z"
/>
<path fill="#e96f27" d="
  M 188.57 170.98
  Q 188.83 172.77 189.11 177.11
  C 190.04 191.20 199.71 207.84 210.65 216.41
  C 228.49 230.40 252.02 230.63 271.30 219.08
  Q 269.41 230.24 273.33 240.68
  Q 275.73 247.04 277.01 249.82
  Q 276.29 251.06 275.71 251.42
  Q 253.64 265.19 228.24 263.15
  Q 211.10 261.76 197.95 255.05
  Q 175.99 243.85 162.31 221.17
  Q 159.82 217.03 158.50 213.47
  Q 156.18 207.19 153.52 200.87
  Q 148.91 164.61 166.37 132.96
  A 0.95 0.95 0.0 0 1 167.52 132.52
  L 182.37 137.81
  A 0.67 0.67 0.0 0 1 182.75 138.72
  Q 170.11 165.72 179.17 194.09
  Q 182.10 203.24 188.61 210.38
  A 0.55 0.55 0.0 0 0 189.55 209.88
  Q 185.54 193.96 187.33 177.00
  Q 187.65 173.93 188.57 170.98
  Z"
/>
<path fill="#fd8c33" d="
  M 481.69 204.96
  Q 479.11 210.67 476.65 216.06
  Q 473.24 223.51 470.97 226.84
  C 462.22 239.64 450.39 251.00 436.20 257.20
  C 416.74 265.69 396.57 265.26 376.37 258.62
  Q 368.19 255.99 361.14 250.96
  L 365.57 240.21
  Q 370.16 242.28 372.32 242.66
  Q 389.07 245.59 405.47 242.44
  C 414.63 240.68 423.83 235.85 431.44 230.66
  Q 437.81 226.31 443.09 219.85
  Q 443.72 219.08 446.38 215.14
  Q 447.99 212.74 450.02 210.63
  Q 457.96 201.26 461.16 188.70
  Q 467.94 162.03 456.95 137.14
  A 0.54 0.53 -21.5 0 1 457.27 136.42
  L 468.35 132.82
  A 0.88 0.87 -22.6 0 1 469.40 133.25
  C 472.03 138.37 475.21 143.25 477.32 148.96
  Q 485.03 169.89 483.76 192.25
  Q 483.51 196.64 481.69 204.96
  Z"
/>
<path fill="#ffffff" d="
  M 450.65 175.70
  C 446.00 203.17 427.65 227.45 397.38 227.40
  Q 385.05 227.38 373.32 221.86
  Q 370.52 220.54 367.50 219.21
  Q 364.67 204.37 355.30 192.61
  A 1.07 1.07 0.0 0 1 355.24 191.35
  L 364.94 176.73
  A 0.55 0.55 0.0 0 1 365.95 176.97
  Q 368.10 194.33 382.60 202.60
  C 389.65 206.62 399.50 207.06 407.22 204.09
  Q 419.41 199.39 424.38 187.46
  C 426.84 181.56 428.01 172.42 424.64 166.80
  A 0.41 0.41 0.0 0 0 423.90 166.90
  Q 422.26 172.89 416.76 176.55
  C 406.97 183.05 393.39 175.17 393.91 163.36
  C 394.26 155.61 400.69 150.92 407.84 149.73
  A 0.66 0.65 83.6 0 0 408.38 149.05
  Q 408.36 148.66 408.48 148.25
  A 1.17 1.16 -2.8 0 1 409.17 147.50
  Q 411.88 146.45 414.62 145.86
  Q 427.34 143.14 437.62 140.78
  A 0.60 0.58 64.8 0 1 438.25 141.02
  Q 449.37 156.71 450.65 175.70
  Z"
/>
<path fill="#ffffff" d="
  M 271.30 219.08
  C 252.02 230.63 228.49 230.40 210.65 216.41
  C 199.71 207.84 190.04 191.20 189.11 177.11
  Q 188.83 172.77 188.57 170.98
  Q 190.95 155.17 200.07 141.79
  A 1.44 1.43 22.5 0 1 201.53 141.19
  L 230.87 147.01
  A 0.38 0.37 -50.9 0 1 230.94 147.72
  Q 226.81 149.51 223.28 152.22
  C 213.24 159.91 209.68 175.00 213.82 186.42
  C 220.34 204.42 242.21 211.47 258.39 201.03
  Q 270.24 193.38 272.92 178.62
  A 0.33 0.33 0.0 0 1 273.52 178.50
  L 281.65 190.88
  A 2.93 2.92 -45.5 0 1 281.67 194.06
  C 280.16 196.45 277.54 200.29 276.06 203.59
  Q 272.64 211.19 271.30 219.08
  Z"
/>
<ellipse fill="#ffffff" cx="0.00" cy="0.00" transform="translate(254.60,167.87) rotate(-144.8)" rx="14.38" ry="14.15"/>
<path fill="#e96f27" d="
  M 450.02 210.63
  Q 447.99 212.74 446.38 215.14
  Q 443.72 219.08 443.09 219.85
  Q 437.81 226.31 431.44 230.66
  C 423.83 235.85 414.63 240.68 405.47 242.44
  Q 389.07 245.59 372.32 242.66
  Q 370.16 242.28 365.57 240.21
  Q 368.99 229.99 367.50 219.21
  Q 370.52 220.54 373.32 221.86
  Q 385.05 227.38 397.38 227.40
  C 427.65 227.45 446.00 203.17 450.65 175.70
  Q 450.96 177.96 451.09 180.01
  Q 452.00 195.08 449.11 209.86
  A 0.62 0.62 0.0 0 0 449.60 210.58
  Q 449.78 210.62 450.02 210.63
  Z"
/>
<path fill="#ffffff" d="
  M 309.60 270.78
  Q 313.18 272.75 317.41 271.79
  A 0.47 0.47 0.0 0 0 317.73 271.13
  Q 313.08 261.48 309.12 249.79
  Q 304.69 236.71 304.94 227.41
  Q 305.26 215.48 309.87 205.08
  C 311.94 200.40 314.90 196.78 318.48 193.26
  A 0.55 0.55 0.0 0 0 318.14 192.33
  C 315.10 192.05 310.78 193.48 304.39 195.14
  A 1.86 1.57 -61.2 0 0 304.00 195.29
  L 297.69 198.67
  Q 302.07 192.26 308.95 189.71
  A 5.43 5.16 -57.7 0 1 310.18 189.40
  Q 315.68 188.71 324.54 188.77
  Q 331.41 188.81 336.19 193.09
  C 342.83 199.04 350.11 210.17 350.64 219.62
  C 351.34 231.98 347.76 242.27 341.15 254.14
  Q 336.50 262.50 331.97 268.25
  Q 327.77 273.59 326.25 276.32
  A 3.62 3.35 -10.8 0 1 325.77 276.97
  L 320.70 282.27
  A 1.45 1.45 0.0 0 1 318.69 282.36
  L 313.65 277.91
  A 3.94 3.76 -84.3 0 1 312.76 276.77
  L 309.60 270.78
  Z
  M 313.58 247.62
  Q 313.04 242.81 312.62 238.75
  Q 311.15 224.47 313.38 211.43
  A 0.54 0.54 0.0 0 0 312.41 211.02
  C 308.24 216.64 307.93 223.11 308.01 230.33
  Q 308.10 237.64 311.27 244.99
  Q 312.02 246.71 313.22 247.81
  A 0.22 0.22 0.0 0 0 313.58 247.62
  Z"
/>
<path fill="#d7e6ef" d="
  M 309.60 270.78
  Q 296.56 254.16 290.47 236.98
  Q 287.96 229.90 288.23 221.63
  Q 288.43 215.20 291.04 209.40
  Q 293.68 203.55 297.69 198.67
  L 304.00 195.29
  A 1.86 1.57 -61.2 0 1 304.39 195.14
  C 310.78 193.48 315.10 192.05 318.14 192.33
  A 0.55 0.55 0.0 0 1 318.48 193.26
  C 314.90 196.78 311.94 200.40 309.87 205.08
  Q 305.26 215.48 304.94 227.41
  Q 304.69 236.71 309.12 249.79
  Q 313.08 261.48 317.73 271.13
  A 0.47 0.47 0.0 0 1 317.41 271.79
  Q 313.18 272.75 309.60 270.78
  Z"
/>
<path fill="#035586" d="
  M 277.01 249.82
  Q 283.11 261.42 284.99 264.25
  Q 288.24 269.17 297.21 279.05
  Q 306.56 289.36 317.78 296.30
  A 1.57 1.56 42.3 0 0 319.54 296.22
  C 325.73 291.54 331.62 287.39 336.88 281.88
  Q 348.54 269.63 350.79 266.54
  Q 356.19 259.12 360.06 252.74
  Q 360.79 251.52 361.14 250.96
  Q 368.19 255.99 376.37 258.62
  Q 375.87 261.71 375.30 262.80
  C 370.90 271.11 364.38 280.43 360.56 286.71
  Q 354.86 296.08 353.29 298.29
  Q 342.79 313.02 329.18 326.68
  Q 315.35 340.58 302.67 350.09
  Q 284.17 334.59 278.61 330.64
  Q 259.71 317.20 243.58 306.94
  Q 236.36 302.35 227.90 297.89
  C 212.31 289.67 197.13 278.11 185.07 266.45
  Q 169.73 251.62 160.91 231.58
  C 159.20 227.71 157.94 222.38 156.83 219.25
  Q 155.92 216.69 154.97 211.26
  Q 154.33 207.60 153.25 203.28
  A 1.68 1.59 -43.4 0 1 153.30 202.36
  Q 153.54 201.70 153.52 200.87
  Q 156.18 207.19 158.50 213.47
  Q 159.82 217.03 162.31 221.17
  Q 175.99 243.85 197.95 255.05
  Q 211.10 261.76 228.24 263.15
  Q 253.64 265.19 275.71 251.42
  Q 276.29 251.06 277.01 249.82
  Z"
/>
<path fill="#037bae" d="
  M 481.69 204.96
  Q 479.15 217.93 474.74 230.13
  C 472.13 237.35 468.95 242.96 465.00 249.01
  C 462.11 253.43 456.99 260.49 452.31 265.41
  Q 440.72 277.62 425.99 288.43
  Q 420.19 292.69 409.66 298.42
  Q 385.81 311.38 370.04 321.82
  Q 342.26 340.22 318.71 364.01
  A 1.19 1.18 -45.5 0 1 317.04 364.03
  L 302.67 350.09
  Q 315.35 340.58 329.18 326.68
  Q 342.79 313.02 353.29 298.29
  Q 354.86 296.08 360.56 286.71
  C 364.38 280.43 370.90 271.11 375.30 262.80
  Q 375.87 261.71 376.37 258.62
  C 396.57 265.26 416.74 265.69 436.20 257.20
  C 450.39 251.00 462.22 239.64 470.97 226.84
  Q 473.24 223.51 476.65 216.06
  Q 479.11 210.67 481.69 204.96
  Z"
/>
<path fill="#d7e6ef" d="
  M 313.22 247.81
  Q 312.02 246.71 311.27 244.99
  Q 308.10 237.64 308.01 230.33
  C 307.93 223.11 308.24 216.64 312.41 211.02
  A 0.54 0.54 0.0 0 1 313.38 211.43
  Q 311.15 224.47 312.62 238.75
  Q 313.04 242.81 313.58 247.62
  A 0.22 0.22 0.0 0 1 313.22 247.81
  Z"
/>
<path fill="#d7e6ef" d="
  M 116.48 307.02
  L 146.34 315.32
  Q 144.93 315.20 144.35 315.56
  A 0.38 0.38 0.0 0 0 144.40 316.24
  Q 148.32 317.89 159.85 321.75
  Q 172.69 326.03 199.62 338.30
  Q 201.76 339.27 212.48 344.21
  Q 218.23 346.86 224.96 350.68
  Q 239.68 359.04 252.99 367.20
  Q 256.97 369.63 259.28 371.43
  C 264.38 375.39 269.43 378.57 274.09 382.28
  Q 298.24 401.50 316.47 418.62
  Q 317.21 419.33 318.05 419.30
  A 0.90 0.90 0.0 0 0 318.92 418.30
  Q 317.87 408.83 318.36 400.90
  Q 329.96 388.60 342.41 378.21
  Q 342.53 378.48 342.53 378.54
  A 0.45 0.45 0.0 0 0 343.26 378.84
  C 347.04 375.73 351.09 372.18 354.61 369.80
  Q 366.38 361.84 380.13 354.81
  C 388.27 350.64 397.35 347.32 405.82 345.39
  Q 410.22 344.39 413.72 345.31
  Q 414.36 345.48 414.38 345.49
  A 1.65 1.65 0.0 0 1 414.40 347.79
  C 412.95 349.32 410.64 351.18 409.03 352.21
  Q 384.53 367.89 373.38 375.88
  Q 367.66 379.97 358.38 387.91
  A 0.21 0.20 -39.8 0 0 358.35 388.19
  L 358.36 388.20
  A 0.19 0.18 53.1 0 0 358.61 388.24
  Q 376.28 376.16 388.23 369.74
  Q 417.65 353.93 453.52 343.60
  C 457.34 342.49 462.15 341.68 466.58 340.62
  Q 470.59 339.65 475.21 341.82
  Q 417.07 367.40 363.49 401.74
  Q 359.13 404.53 348.72 412.21
  Q 345.36 414.51 342.77 416.24
  Q 333.85 422.23 322.76 422.62
  C 314.80 422.90 306.44 422.17 299.44 418.08
  Q 296.48 416.34 291.64 412.45
  Q 271.37 397.50 249.05 384.53
  C 226.32 371.32 199.81 357.71 174.37 346.13
  Q 139.89 330.43 104.84 319.05
  L 108.54 305.78
  A 0.92 0.92 0.0 0 1 109.44 305.11
  Q 113.62 305.19 116.48 307.02
  Z"
/>
<path fill="#d7e6ef" d="
  M 534.98 318.72
  L 529.05 320.68
  L 526.73 307.82
  A 1.11 1.11 0.0 0 1 528.86 307.22
  Q 531.18 313.17 534.98 318.72
  Z"
/>
<path fill="#ffffff" d="
  M 318.36 400.90
  Q 317.87 408.83 318.92 418.30
  A 0.90 0.90 0.0 0 1 318.05 419.30
  Q 317.21 419.33 316.47 418.62
  Q 298.24 401.50 274.09 382.28
  C 269.43 378.57 264.38 375.39 259.28 371.43
  Q 256.97 369.63 252.99 367.20
  Q 239.68 359.04 224.96 350.68
  Q 218.23 346.86 212.48 344.21
  Q 201.76 339.27 199.62 338.30
  Q 172.69 326.03 159.85 321.75
  Q 148.32 317.89 144.40 316.24
  A 0.38 0.38 0.0 0 1 144.35 315.56
  Q 144.93 315.20 146.34 315.32
  L 161.54 319.96
  A 0.58 0.58 0.0 0 0 162.27 319.54
  L 165.17 307.48
  A 0.82 0.82 0.0 0 1 166.24 306.90
  Q 209.14 322.08 247.93 344.58
  Q 268.82 356.70 288.12 371.89
  Q 301.87 382.72 315.45 397.04
  Q 317.41 399.11 318.36 400.90
  Z"
/>
<path fill="#00244a" d="
  M 104.84 319.05
  Q 139.89 330.43 174.37 346.13
  C 199.81 357.71 226.32 371.32 249.05 384.53
  Q 271.37 397.50 291.64 412.45
  Q 290.81 424.57 290.88 436.25
  Q 291.30 501.23 291.40 568.96
  Q 291.43 586.24 292.42 619.67
  A 1.05 1.05 0.0 0 1 292.09 620.48
  L 291.39 621.14
  Q 215.75 573.80 133.68 538.93
  A 1.32 1.30 8.4 0 1 132.90 537.89
  L 131.35 525.32
  A 0.90 0.88 -82.2 0 0 130.82 524.60
  Q 124.74 522.01 118.40 517.85
  Q 89.21 498.74 72.74 468.52
  C 60.14 445.41 54.43 418.16 54.30 391.25
  C 54.22 372.87 58.13 356.58 68.37 341.36
  Q 68.53 341.12 69.03 340.79
  Q 69.31 340.88 69.48 341.03
  Q 69.66 341.21 69.62 341.52
  C 68.96 345.70 68.70 348.98 67.69 352.53
  C 64.18 364.78 61.27 376.29 67.95 388.24
  C 75.23 401.29 86.04 409.60 99.60 416.20
  Q 110.83 421.66 119.84 422.42
  C 126.42 422.98 130.73 423.42 136.50 423.04
  A 0.35 0.35 0.0 0 1 136.80 423.61
  C 128.59 433.62 117.30 437.76 105.00 440.44
  A 0.68 0.68 0.0 0 0 104.47 441.20
  Q 104.50 441.41 104.73 441.77
  Q 112.70 454.55 126.34 459.86
  C 132.02 462.08 137.72 463.74 143.76 464.44
  Q 156.04 465.87 167.77 465.36
  A 0.31 0.30 -85.5 0 1 168.08 465.73
  Q 168.01 466.06 167.67 466.42
  Q 164.02 470.35 161.44 472.66
  C 154.29 479.06 144.51 481.84 134.50 484.31
  A 0.86 0.86 0.0 0 0 133.96 485.56
  Q 141.83 499.86 157.52 505.29
  C 166.37 508.35 174.61 508.26 183.36 504.33
  Q 200.21 496.77 209.26 479.80
  Q 212.11 474.47 213.65 469.39
  C 201.16 458.02 199.65 442.31 205.18 427.46
  A 0.62 0.61 -65.9 0 0 204.90 426.71
  C 201.39 424.79 198.55 423.07 196.19 419.87
  Q 191.10 412.98 190.03 404.19
  L 189.60 398.94
  A 0.82 0.81 79.8 0 0 188.57 398.22
  Q 167.67 404.07 148.25 404.25
  Q 143.29 404.30 137.02 403.43
  Q 118.46 400.85 100.20 394.44
  Q 95.15 392.67 91.76 390.92
  C 85.56 387.70 82.10 386.10 79.12 380.92
  Q 74.17 372.30 73.12 361.99
  Q 72.77 358.54 73.42 357.14
  Q 73.96 356.00 74.65 356.58
  A 0.22 0.21 10.7 0 1 74.72 356.68
  L 76.12 363.11
  A 0.47 0.47 0.0 0 0 77.04 363.14
  Q 77.32 362.20 81.56 352.80
  C 85.69 343.64 83.75 334.41 81.82 324.88
  L 80.07 312.31
  A 0.20 0.20 0.0 0 1 80.32 312.09
  L 104.84 319.05
  Z"
/>
<path fill="#037bae" d="
  M 556.27 325.03
  Q 553.99 334.87 553.32 344.47
  Q 550.12 352.60 549.35 361.44
  A 2.10 2.09 78.7 0 1 548.24 363.11
  Q 539.24 367.88 530.22 371.79
  Q 523.57 374.68 511.15 378.15
  Q 481.76 386.37 459.08 392.08
  Q 449.10 394.60 439.87 398.31
  C 431.16 401.81 423.54 408.80 422.41 418.43
  C 422.01 421.89 423.04 426.43 421.43 430.84
  C 418.65 433.30 416.27 436.56 413.97 438.83
  C 411.90 440.87 410.28 443.44 408.13 445.85
  Q 403.69 450.81 397.67 458.69
  A 4.21 4.16 -24.6 0 0 396.83 460.91
  Q 395.30 481.84 402.07 501.02
  C 404.42 507.69 408.65 514.34 412.89 520.12
  Q 420.81 530.90 431.86 537.74
  C 438.12 541.61 445.81 544.36 453.24 546.73
  Q 461.64 549.41 471.01 549.86
  Q 471.87 549.90 473.87 551.63
  C 430.00 570.68 387.55 594.05 346.84 620.03
  C 346.69 617.23 346.35 614.40 346.39 611.64
  Q 347.29 549.24 347.61 486.82
  Q 347.62 484.59 347.65 482.37
  Q 348.10 447.71 348.72 412.21
  Q 359.13 404.53 363.49 401.74
  Q 417.07 367.40 475.21 341.82
  Q 501.74 330.13 529.05 320.68
  L 534.98 318.72
  L 557.20 311.93
  A 0.61 0.61 0.0 0 1 557.98 312.59
  L 556.27 325.03
  Z"
/>
<path fill="#e96f27" d="
  M 81.82 324.88
  C 83.75 334.41 85.69 343.64 81.56 352.80
  Q 77.32 362.20 77.04 363.14
  A 0.47 0.47 0.0 0 1 76.12 363.11
  L 74.72 356.68
  A 0.22 0.21 10.7 0 0 74.65 356.58
  Q 73.96 356.00 73.42 357.14
  Q 72.77 358.54 73.12 361.99
  Q 74.17 372.30 79.12 380.92
  C 82.10 386.10 85.56 387.70 91.76 390.92
  Q 95.15 392.67 100.20 394.44
  Q 118.46 400.85 137.02 403.43
  Q 143.29 404.30 148.25 404.25
  Q 167.67 404.07 188.57 398.22
  A 0.82 0.81 79.8 0 1 189.60 398.94
  L 190.03 404.19
  Q 189.88 404.31 189.71 403.99
  A 0.40 0.40 0.0 0 0 188.97 404.06
  C 187.75 407.98 187.18 411.77 185.64 415.44
  Q 178.82 431.70 165.64 443.12
  Q 162.72 445.64 160.76 447.47
  A 0.57 0.57 0.0 0 0 161.13 448.45
  C 173.66 448.85 186.24 446.25 198.77 442.90
  A 1.01 1.01 0.0 0 1 200.00 444.16
  Q 197.69 452.25 193.21 460.43
  Q 186.70 472.31 175.65 479.60
  A 0.59 0.58 38.1 0 0 175.78 480.64
  C 185.13 484.00 194.15 481.86 202.50 477.25
  Q 208.75 473.81 213.65 469.39
  Q 212.11 474.47 209.26 479.80
  Q 200.21 496.77 183.36 504.33
  C 174.61 508.26 166.37 508.35 157.52 505.29
  Q 141.83 499.86 133.96 485.56
  A 0.86 0.86 0.0 0 1 134.50 484.31
  C 144.51 481.84 154.29 479.06 161.44 472.66
  Q 164.02 470.35 167.67 466.42
  Q 168.01 466.06 168.08 465.73
  A 0.31 0.30 -85.5 0 0 167.77 465.36
  Q 156.04 465.87 143.76 464.44
  C 137.72 463.74 132.02 462.08 126.34 459.86
  Q 112.70 454.55 104.73 441.77
  Q 104.50 441.41 104.47 441.20
  A 0.68 0.68 0.0 0 1 105.00 440.44
  C 117.30 437.76 128.59 433.62 136.80 423.61
  A 0.35 0.35 0.0 0 0 136.50 423.04
  C 130.73 423.42 126.42 422.98 119.84 422.42
  Q 110.83 421.66 99.60 416.20
  C 86.04 409.60 75.23 401.29 67.95 388.24
  C 61.27 376.29 64.18 364.78 67.69 352.53
  C 68.70 348.98 68.96 345.70 69.62 341.52
  Q 69.66 341.21 69.48 341.03
  Q 69.31 340.88 69.03 340.79
  Q 69.49 340.21 69.81 339.60
  Q 74.27 331.27 81.82 324.88
  Z"
/>
<path fill="#e96f27" d="
  M 572.91 347.26
  Q 572.07 351.48 573.28 356.00
  L 567.56 359.79
  L 567.09 359.18
  A 0.66 0.66 0.0 0 0 565.94 359.37
  L 563.95 365.09
  A 0.52 0.52 0.0 0 1 563.04 365.22
  Q 562.76 364.90 562.51 364.02
  Q 561.12 359.09 559.60 356.17
  Q 556.87 350.92 553.32 344.47
  Q 553.99 334.87 556.27 325.03
  Q 558.83 327.70 561.29 330.45
  Q 568.60 338.63 572.91 347.26
  Z"
/>
<path fill="#00244a" d="
  M 553.32 344.47
  Q 556.87 350.92 559.60 356.17
  Q 561.12 359.09 562.51 364.02
  Q 562.76 364.90 563.04 365.22
  A 0.52 0.52 0.0 0 0 563.95 365.09
  L 565.94 359.37
  A 0.66 0.66 0.0 0 1 567.09 359.18
  L 567.56 359.79
  Q 568.09 361.14 568.12 362.01
  C 568.36 369.84 565.96 379.83 559.65 384.65
  C 557.13 386.57 552.28 389.19 548.70 390.58
  Q 526.28 399.30 510.51 402.22
  Q 499.25 404.31 493.99 404.34
  Q 472.57 404.47 451.33 400.70
  A 1.27 1.26 -85.7 0 0 449.85 401.98
  C 450.12 412.09 446.36 421.71 436.68 426.17
  A 0.87 0.87 0.0 0 0 436.17 426.99
  Q 436.24 429.05 437.18 431.03
  Q 437.72 434.69 437.90 441.24
  C 438.16 450.96 435.14 462.78 426.93 468.38
  A 1.80 1.79 63.4 0 0 426.25 470.44
  C 431.91 486.81 443.82 500.11 460.44 505.59
  C 468.69 508.30 477.08 507.96 484.84 504.89
  Q 499.47 499.11 506.72 485.18
  A 0.62 0.62 0.0 0 0 506.27 484.28
  Q 499.60 483.18 492.35 480.14
  Q 480.67 475.25 472.89 465.32
  A 0.30 0.30 0.0 0 1 473.15 464.84
  Q 489.06 465.97 503.97 463.24
  Q 525.63 459.27 536.39 441.25
  A 0.52 0.52 0.0 0 0 536.07 440.48
  Q 522.30 437.19 509.07 429.67
  L 503.20 423.94
  L 503.19 423.40
  A 0.38 0.38 0.0 0 1 503.59 423.02
  C 515.87 423.75 526.62 422.03 538.29 416.70
  Q 552.36 410.27 564.14 400.20
  Q 569.96 393.38 573.50 385.48
  C 577.82 375.84 576.02 366.10 573.28 356.00
  Q 572.07 351.48 572.91 347.26
  Q 578.85 360.21 581.90 374.30
  Q 583.77 382.95 583.94 390.07
  Q 584.70 422.06 573.15 452.41
  C 561.18 483.84 537.47 511.78 506.23 525.14
  A 0.95 0.95 0.0 0 0 505.66 525.91
  L 505.08 531.42
  Q 477.31 536.09 451.81 526.13
  C 440.66 521.77 430.93 515.27 423.32 506.92
  Q 416.33 499.24 412.40 488.59
  C 408.05 476.78 409.97 462.30 414.66 450.63
  C 418.00 442.35 420.88 436.57 421.43 430.84
  C 423.04 426.43 422.01 421.89 422.41 418.43
  C 423.54 408.80 431.16 401.81 439.87 398.31
  Q 449.10 394.60 459.08 392.08
  Q 481.76 386.37 511.15 378.15
  Q 523.57 374.68 530.22 371.79
  Q 539.24 367.88 548.24 363.11
  A 2.10 2.09 78.7 0 0 549.35 361.44
  Q 550.12 352.60 553.32 344.47
  Z"
/>
<path fill="#fd8c33" d="
  M 573.28 356.00
  C 576.02 366.10 577.82 375.84 573.50 385.48
  Q 569.96 393.38 564.14 400.20
  Q 561.05 400.23 557.12 401.87
  C 552.35 403.86 547.10 406.56 542.18 408.19
  Q 522.85 414.60 501.56 418.05
  Q 498.13 418.61 488.01 419.97
  A 0.14 0.14 0.0 0 0 488.00 420.25
  L 503.20 423.94
  L 509.07 429.67
  Q 512.79 439.48 522.37 444.42
  A 0.43 0.42 43.6 0 1 522.39 445.17
  C 513.95 449.93 504.99 448.52 494.68 447.03
  Q 478.63 444.70 461.15 439.84
  Q 456.88 438.65 449.15 435.52
  Q 443.23 433.13 437.18 431.03
  Q 436.24 429.05 436.17 426.99
  A 0.87 0.87 0.0 0 1 436.68 426.17
  C 446.36 421.71 450.12 412.09 449.85 401.98
  A 1.27 1.26 -85.7 0 1 451.33 400.70
  Q 472.57 404.47 493.99 404.34
  Q 499.25 404.31 510.51 402.22
  Q 526.28 399.30 548.70 390.58
  C 552.28 389.19 557.13 386.57 559.65 384.65
  C 565.96 379.83 568.36 369.84 568.12 362.01
  Q 568.09 361.14 567.56 359.79
  L 573.28 356.00
  Z"
/>
<path fill="#e96f27" d="
  M 564.14 400.20
  Q 552.36 410.27 538.29 416.70
  C 526.62 422.03 515.87 423.75 503.59 423.02
  A 0.38 0.38 0.0 0 0 503.19 423.40
  L 503.20 423.94
  L 488.00 420.25
  A 0.14 0.14 0.0 0 1 488.01 419.97
  Q 498.13 418.61 501.56 418.05
  Q 522.85 414.60 542.18 408.19
  C 547.10 406.56 552.35 403.86 557.12 401.87
  Q 561.05 400.23 564.14 400.20
  Z"
/>
<path fill="#fd8c33" d="
  M 190.03 404.19
  Q 191.10 412.98 196.19 419.87
  C 198.55 423.07 201.39 424.79 204.90 426.71
  A 0.62 0.61 -65.9 0 1 205.18 427.46
  C 199.65 442.31 201.16 458.02 213.65 469.39
  Q 208.75 473.81 202.50 477.25
  C 194.15 481.86 185.13 484.00 175.78 480.64
  A 0.59 0.58 38.1 0 1 175.65 479.60
  Q 186.70 472.31 193.21 460.43
  Q 197.69 452.25 200.00 444.16
  A 1.01 1.01 0.0 0 0 198.77 442.90
  C 186.24 446.25 173.66 448.85 161.13 448.45
  A 0.57 0.57 0.0 0 1 160.76 447.47
  Q 162.72 445.64 165.64 443.12
  Q 178.82 431.70 185.64 415.44
  C 187.18 411.77 187.75 407.98 188.97 404.06
  A 0.40 0.40 0.0 0 1 189.71 403.99
  Q 189.88 404.31 190.03 404.19
  Z"
/>
<path fill="#035586" d="
  M 348.72 412.21
  Q 348.10 447.71 347.65 482.37
  Q 347.62 484.59 347.61 486.82
  Q 347.29 549.24 346.39 611.64
  C 346.35 614.40 346.69 617.23 346.84 620.03
  C 338.53 626.71 329.45 628.22 318.48 628.13
  C 309.13 628.06 299.36 626.49 291.39 621.14
  L 292.09 620.48
  A 1.05 1.05 0.0 0 0 292.42 619.67
  Q 291.43 586.24 291.40 568.96
  Q 291.30 501.23 290.88 436.25
  Q 290.81 424.57 291.64 412.45
  Q 296.48 416.34 299.44 418.08
  C 306.44 422.17 314.80 422.90 322.76 422.62
  Q 333.85 422.23 342.77 416.24
  Q 345.36 414.51 348.72 412.21
  Z"
/>
<path fill="#e96f27" d="
  M 437.18 431.03
  Q 443.23 433.13 449.15 435.52
  Q 456.88 438.65 461.15 439.84
  Q 478.63 444.70 494.68 447.03
  C 504.99 448.52 513.95 449.93 522.39 445.17
  A 0.43 0.42 43.6 0 0 522.37 444.42
  Q 512.79 439.48 509.07 429.67
  Q 522.30 437.19 536.07 440.48
  A 0.52 0.52 0.0 0 1 536.39 441.25
  Q 525.63 459.27 503.97 463.24
  Q 489.06 465.97 473.15 464.84
  A 0.30 0.30 0.0 0 0 472.89 465.32
  Q 480.67 475.25 492.35 480.14
  Q 499.60 483.18 506.27 484.28
  A 0.62 0.62 0.0 0 1 506.72 485.18
  Q 499.47 499.11 484.84 504.89
  C 477.08 507.96 468.69 508.30 460.44 505.59
  C 443.82 500.11 431.91 486.81 426.25 470.44
  A 1.80 1.79 63.4 0 1 426.93 468.38
  C 435.14 462.78 438.16 450.96 437.90 441.24
  Q 437.72 434.69 437.18 431.03
  Z"
/>
<path fill="#035586" d="
  M 421.43 430.84
  C 420.88 436.57 418.00 442.35 414.66 450.63
  C 409.97 462.30 408.05 476.78 412.40 488.59
  Q 416.33 499.24 423.32 506.92
  C 430.93 515.27 440.66 521.77 451.81 526.13
  Q 477.31 536.09 505.08 531.42
  L 504.65 537.09
  A 2.35 2.34 -9.4 0 1 503.24 539.06
  L 473.87 551.63
  Q 471.87 549.90 471.01 549.86
  Q 461.64 549.41 453.24 546.73
  C 445.81 544.36 438.12 541.61 431.86 537.74
  Q 420.81 530.90 412.89 520.12
  C 408.65 514.34 404.42 507.69 402.07 501.02
  Q 395.30 481.84 396.83 460.91
  A 4.21 4.16 -24.6 0 1 397.67 458.69
  Q 403.69 450.81 408.13 445.85
  C 410.28 443.44 411.90 440.87 413.97 438.83
  C 416.27 436.56 418.65 433.30 421.43 430.84
  Z"
/>
</svg>
