<?xml version="1.0" encoding="UTF-8" standalone="no"?>
<!DOCTYPE svg PUBLIC "-//W3C//DTD SVG 1.1//EN" "http://www.w3.org/Graphics/SVG/1.1/DTD/svg11.dtd">
<svg xmlns="http://www.w3.org/2000/svg" version="1.1" viewBox="0.00 0.00 621.00 621.00">
<g stroke-width="2.00" fill="none" stroke-linecap="butt">
<path stroke="#7f92a5" vector-effect="non-scaling-stroke" d="
  M 516.44 307.10
  C 501.33 310.60 486.18 314.36 471.45 319.57
  A 0.92 0.92 0.0 0 1 470.24 318.89
  L 467.76 307.16
  A 1.16 1.16 0.0 0 0 466.28 306.30
  C 434.00 316.68 402.78 332.13 374.56 350.34
  Q 355.14 362.87 344.19 371.50"
/>
<path stroke="#6c859d" vector-effect="non-scaling-stroke" d="
  M 344.19 371.50
  Q 326.22 385.54 310.62 402.09"
/>
<path stroke="#7f92a5" vector-effect="non-scaling-stroke" d="
  M 310.62 402.09
  Q 298.60 388.27 284.20 376.56
  Q 262.04 358.55 239.69 345.56
  Q 199.37 322.14 155.55 306.70
  A 0.62 0.60 -73.6 0 0 154.76 307.14
  L 151.80 319.54
  A 0.74 0.73 15.2 0 1 150.87 320.07
  L 142.28 317.35"
/>
<path stroke="#6c859d" vector-effect="non-scaling-stroke" d="
  M 142.28 317.35
  L 105.40 307.12"
/>
<path stroke="#754a39" vector-effect="non-scaling-stroke" d="
  M 124.26 78.55
  C 132.86 94.92 148.89 107.96 165.63 115.35
  Q 182.48 122.80 199.72 126.75
  C 209.22 128.93 220.84 130.44 229.44 132.92
  C 253.33 139.81 273.33 155.61 288.67 175.00
  A 1.00 1.00 0.0 0 0 290.03 175.19
  Q 294.70 171.83 301.43 170.18"
/>
<path stroke="#7e583e" vector-effect="non-scaling-stroke" d="
  M 301.43 170.18
  L 314.90 169.89"
/>
<path stroke="#754a39" vector-effect="non-scaling-stroke" d="
  M 314.90 169.89
  Q 324.48 170.04 332.48 174.68
  A 0.75 0.75 0.0 0 0 333.43 174.50
  C 350.65 153.20 373.39 137.18 400.33 131.36
  Q 421.18 126.85 424.79 126.00
  Q 442.92 121.69 461.08 112.81
  Q 480.17 103.48 493.62 85.13
  Q 500.46 75.81 503.08 65.55"
/>
<path stroke="#7e583e" vector-effect="non-scaling-stroke" d="
  M 503.08 65.55
  Q 506.26 58.26 507.42 49.86
  A 0.48 0.48 0.0 0 0 506.58 49.48
  C 501.84 55.09 494.57 59.21 487.00 62.96
  Q 473.01 69.89 454.36 75.84
  Q 450.50 77.07 446.85 77.82"
/>
<path stroke="#024f7c" vector-effect="non-scaling-stroke" d="
  M 446.85 77.82
  Q 441.93 75.90 436.91 75.42
  A 1.17 1.15 -81.7 0 1 435.89 74.03
  Q 435.98 73.59 436.73 73.22
  Q 449.43 66.89 456.69 64.76
  A 0.29 0.29 0.0 0 0 456.89 64.41
  L 456.89 64.39
  A 0.24 0.23 -13.7 0 0 456.62 64.23
  Q 449.84 65.54 439.00 66.83
  Q 420.09 69.09 403.40 66.55
  C 391.99 64.81 377.97 60.71 366.07 58.23
  Q 328.42 50.42 291.28 53.30
  Q 271.78 54.81 253.69 58.43
  C 243.28 60.51 226.31 65.71 214.53 67.03
  C 197.23 68.97 180.12 67.48 163.27 64.24
  A 0.29 0.29 0.0 0 0 162.93 64.45
  L 162.93 64.47
  A 0.31 0.31 0.0 0 0 163.14 64.85
  Q 173.37 68.05 183.58 73.20
  Q 184.27 73.54 184.43 74.13
  A 0.68 0.68 0.0 0 1 183.90 74.99
  Q 178.46 76.06 172.86 77.37"
/>
<path stroke="#7e583e" vector-effect="non-scaling-stroke" d="
  M 172.86 77.37
  Q 170.57 77.10 168.12 76.32
  Q 145.46 69.19 127.56 59.42
  Q 119.70 55.14 114.52 49.11
  A 0.38 0.38 0.0 0 0 113.86 49.28
  Q 113.80 49.54 113.87 49.98
  Q 116.14 65.35 124.26 78.55"
/>
<path stroke="#7f8370" vector-effect="non-scaling-stroke" d="
  M 172.86 77.37
  C 184.68 81.04 193.85 82.32 212.92 86.11
  Q 225.05 88.53 240.95 94.59
  C 270.80 105.96 296.28 128.76 310.30 157.74
  A 0.51 0.50 -35.6 0 0 311.12 157.87
  Q 311.54 157.44 311.73 156.99
  C 323.45 129.88 348.21 108.68 374.96 97.18
  Q 394.29 88.87 414.98 84.97
  Q 431.89 81.78 446.85 77.82"
/>
<path stroke="#f27d2c" vector-effect="non-scaling-stroke" d="
  M 503.08 65.55
  Q 500.32 72.41 495.79 75.87
  Q 491.64 79.05 491.59 79.09
  Q 480.85 88.57 467.79 94.53
  C 456.02 99.91 440.92 104.35 424.91 108.34
  Q 404.72 113.38 393.18 117.22
  Q 382.71 120.71 369.36 126.81
  C 349.90 135.72 331.98 151.50 318.46 168.06
  A 2.75 2.69 8.0 0 1 317.40 168.84
  L 314.90 169.89"
/>
<path stroke="#f27d2c" vector-effect="non-scaling-stroke" d="
  M 301.43 170.18
  Q 287.75 152.50 275.65 142.59
  Q 260.55 130.24 243.83 123.47
  Q 227.04 116.68 214.75 113.55
  Q 190.60 107.41 172.64 102.36
  C 156.12 97.71 140.31 90.72 126.97 79.02
  Q 125.96 78.13 124.26 78.55"
/>
<path stroke="#013d68" vector-effect="non-scaling-stroke" d="
  M 142.89 199.65
  Q 143.82 212.46 148.60 225.39
  C 157.09 248.37 172.92 266.48 192.34 280.55
  Q 207.76 291.71 209.89 292.85
  Q 255.56 317.29 294.51 350.76"
/>
<path stroke="#024f7c" vector-effect="non-scaling-stroke" d="
  M 294.51 350.76
  L 309.40 365.18
  A 0.54 0.54 0.0 0 0 310.16 365.18
  C 330.83 344.85 352.83 327.32 378.44 312.18
  Q 392.90 303.64 404.93 297.23
  Q 413.50 292.66 419.67 288.08
  Q 426.60 282.92 433.29 277.31
  C 450.19 263.13 463.96 245.12 471.00 224.23
  Q 474.47 213.93 476.24 203.22"
/>
<path stroke="#7e583e" vector-effect="non-scaling-stroke" d="
  M 476.24 203.22
  Q 478.35 194.93 478.64 187.18
  C 479.25 171.33 475.92 152.45 468.00 137.98
  Q 464.11 130.88 463.95 130.52
  A 0.91 0.91 0.0 0 0 462.85 130.04
  L 451.65 133.51
  A 0.68 0.67 -20.8 0 0 451.23 134.43
  C 460.75 155.70 460.49 180.16 450.02 200.73
  Q 447.23 206.20 442.96 209.67"
/>
<path stroke="#754a39" vector-effect="non-scaling-stroke" d="
  M 442.96 209.67
  Q 446.63 192.50 445.13 175.17"
/>
<path stroke="#7f92a5" vector-effect="non-scaling-stroke" d="
  M 445.13 175.17
  Q 444.76 172.71 444.46 169.92
  C 443.24 158.57 438.86 147.81 432.33 138.36
  A 0.59 0.59 0.0 0 0 431.74 138.12
  Q 419.26 140.73 406.41 143.65
  Q 402.14 144.63 401.79 146.23
  A 1.21 1.20 3.6 0 1 400.72 147.17
  Q 399.81 147.26 396.39 148.64
  C 388.19 151.96 384.90 160.47 389.02 168.51
  C 393.08 176.45 403.50 179.15 410.79 174.02
  Q 416.02 170.36 417.65 164.67
  A 0.53 0.53 0.0 0 1 418.63 164.56
  Q 420.43 167.99 420.50 172.42
  Q 420.78 191.03 405.04 200.23
  Q 396.92 204.98 388.71 204.37
  C 372.23 203.14 360.76 191.42 358.69 174.94
  A 0.52 0.52 0.0 0 0 357.74 174.72
  L 347.77 189.64
  A 0.78 0.78 0.0 0 0 347.82 190.58
  Q 355.03 199.09 358.34 209.88
  Q 359.74 214.44 360.61 217.76"
/>
<path stroke="#754a39" vector-effect="non-scaling-stroke" d="
  M 360.61 217.76
  Q 360.69 221.91 360.68 224.75
  Q 360.68 232.02 358.40 238.91"
/>
<path stroke="#7e583e" vector-effect="non-scaling-stroke" d="
  M 358.40 238.91
  L 353.65 250.07"
/>
<path stroke="#013d68" vector-effect="non-scaling-stroke" d="
  M 353.65 250.07
  Q 349.22 258.24 346.21 262.21
  Q 331.38 281.76 311.60 295.97
  A 1.64 1.64 0.0 0 1 309.77 296.02
  Q 297.35 288.15 287.66 277.10
  Q 280.21 268.60 276.89 263.86
  Q 272.92 258.20 268.65 249.33"
/>
<path stroke="#754a39" vector-effect="non-scaling-stroke" d="
  M 268.65 249.33
  Q 267.33 246.78 265.17 241.08
  Q 262.16 233.11 262.06 225.75
  Q 262.02 222.31 262.31 217.89"
/>
<path stroke="#7f92a5" vector-effect="non-scaling-stroke" d="
  M 262.31 217.89
  Q 264.65 203.94 273.02 192.19
  A 2.89 2.88 46.0 0 0 273.07 188.93
  L 264.74 176.41
  A 0.27 0.27 0.0 0 0 264.25 176.50
  C 263.83 178.33 263.27 181.39 262.42 183.45
  Q 256.82 197.10 243.60 202.22
  C 227.77 208.34 209.90 200.06 204.09 184.36
  Q 200.20 173.82 204.71 161.95
  Q 209.14 150.28 221.21 145.17
  A 0.51 0.51 0.0 0 0 221.11 144.20
  L 191.27 138.52
  A 0.96 0.95 22.0 0 0 190.29 138.93
  Q 180.21 153.98 178.05 171.71"
/>
<path stroke="#754a39" vector-effect="non-scaling-stroke" d="
  M 178.05 171.71
  Q 175.42 187.22 178.31 202.99
  Q 178.95 206.46 179.70 208.80
  A 0.35 0.35 0.0 0 1 179.12 209.15
  C 174.24 204.18 170.81 198.14 168.62 191.20
  Q 161.46 168.49 168.62 145.91
  Q 169.86 142.02 172.54 135.60
  A 0.44 0.44 0.0 0 0 172.28 135.01
  L 157.10 129.65
  A 0.97 0.97 0.0 0 0 155.93 130.09
  Q 140.37 158.23 142.01 190.49
  Q 142.13 192.77 142.89 199.65"
/>
<path stroke="#f4b793" vector-effect="non-scaling-stroke" d="
  M 178.05 171.71
  Q 179.01 176.14 179.95 180.45
  C 182.00 189.76 186.15 198.84 192.02 205.98
  Q 210.57 228.55 240.50 225.50
  Q 250.10 224.52 262.31 217.89"
/>
<path stroke="#766257" vector-effect="non-scaling-stroke" d="
  M 268.65 249.33
  Q 259.25 255.46 251.93 257.98
  Q 231.66 264.96 210.33 261.32
  C 185.17 257.04 164.14 241.02 151.43 219.04
  Q 148.34 213.70 142.89 199.65"
/>
<path stroke="#03689a" vector-effect="non-scaling-stroke" d="
  M 369.26 257.78
  Q 367.39 264.56 362.41 271.91
  Q 360.95 274.07 348.97 293.47
  Q 343.76 301.91 332.81 314.57
  Q 320.24 329.09 303.70 343.44
  Q 298.35 348.07 294.51 350.76"
/>
<path stroke="#7f8370" vector-effect="non-scaling-stroke" d="
  M 476.24 203.22
  Q 474.96 205.73 474.04 208.25
  Q 469.60 220.38 461.87 230.41
  C 447.49 249.07 427.64 261.24 403.75 262.62
  Q 386.26 263.63 369.26 257.78"
/>
<path stroke="#7f705c" vector-effect="non-scaling-stroke" d="
  M 369.26 257.78
  Q 360.44 254.71 353.65 250.07"
/>
<path stroke="#f27d2c" vector-effect="non-scaling-stroke" d="
  M 358.40 238.91
  Q 360.30 239.69 362.16 240.35
  C 365.47 241.53 369.24 241.82 372.49 242.34
  C 391.29 245.38 410.12 240.30 425.48 229.22
  Q 436.64 221.18 442.96 209.67"
/>
<path stroke="#f4b793" vector-effect="non-scaling-stroke" d="
  M 445.13 175.17
  Q 443.95 177.85 442.14 184.62
  Q 439.06 196.20 430.57 206.79
  C 419.34 220.79 402.36 227.55 384.42 225.59
  Q 372.15 224.24 360.61 217.76"
/>
<path stroke="#7f92a5" vector-effect="non-scaling-stroke" d="
  M 234.1522 156.5460
  A 14.56 14.35 -141.9 0 0 236.7555 176.8225
  A 14.56 14.35 -141.9 0 0 257.0678 174.5140
  A 14.56 14.35 -141.9 0 0 254.4645 154.2375
  A 14.56 14.35 -141.9 0 0 234.1522 156.5460"
/>
<path stroke="#6c859d" vector-effect="non-scaling-stroke" d="
  M 291.33 194.46
  Q 285.95 200.03 282.13 208.46
  Q 280.21 212.71 279.86 217.77
  C 278.81 233.16 286.19 247.57 294.39 260.11
  Q 296.39 263.18 302.39 271.68"
/>
<path stroke="#7f92a5" vector-effect="non-scaling-stroke" d="
  M 302.39 271.68
  C 304.40 276.85 307.40 279.12 311.33 282.33
  A 0.54 0.53 -44.5 0 0 312.00 282.33
  C 316.68 278.42 319.40 274.08 322.85 269.48
  Q 335.46 252.60 340.33 238.56
  C 343.39 229.75 344.88 218.90 341.44 210.32
  C 337.91 201.50 330.74 189.58 320.99 187.32
  Q 317.53 186.52 311.72 186.72
  Q 304.03 186.99 302.44 187.34
  Q 296.14 188.72 291.33 194.46"
/>
<path stroke="#ebf3f7" vector-effect="non-scaling-stroke" d="
  M 302.39 271.68
  L 309.05 271.39
  A 0.61 0.60 76.3 0 0 309.57 270.53
  Q 305.02 260.88 300.75 248.04
  Q 296.43 235.03 296.75 226.13
  C 297.21 212.96 301.09 200.15 310.53 191.10
  A 0.46 0.46 0.0 0 0 310.11 190.32
  L 291.33 194.46"
/>
<path stroke="#2c94bf" vector-effect="non-scaling-stroke" d="
  M 309.20 97.00
  C 309.73 97.00 309.37 97.03 309.53 96.86
  Q 325.02 80.33 347.16 74.77
  Q 347.61 74.66 347.64 74.23
  A 0.41 0.41 0.0 0 0 347.31 73.80
  Q 327.16 70.05 309.29 70.00
  Q 291.42 69.94 271.24 73.56
  A 0.41 0.41 0.0 0 0 270.91 73.98
  Q 270.93 74.41 271.38 74.52
  Q 293.49 80.23 308.87 96.86
  C 309.03 97.03 308.67 97.00 309.20 97.00"
/>
<path stroke="#ebf3f7" vector-effect="non-scaling-stroke" d="
  M 299.87 228.32
  C 300.01 235.34 301.22 241.31 305.06 247.00
  A 0.33 0.33 0.0 0 0 305.65 246.77
  Q 304.11 236.68 303.94 228.24
  Q 303.76 219.80 304.88 209.65
  A 0.33 0.33 0.0 0 0 304.27 209.44
  C 300.68 215.29 299.72 221.31 299.87 228.32"
/>
<path stroke="#81bdd7" vector-effect="non-scaling-stroke" d="
  M 527.79 319.08
  Q 527.84 319.37 527.74 319.55
  A 0.26 0.26 0.0 0 1 527.60 319.66
  Q 496.22 330.62 465.82 344.02"
/>
<path stroke="#ebf3f7" vector-effect="non-scaling-stroke" d="
  M 465.82 344.02
  Q 465.35 342.89 465.40 341.80
  A 0.65 0.65 0.0 0 0 464.93 341.15
  Q 463.40 340.71 461.76 341.00
  Q 452.45 342.65 440.15 346.45
  C 413.43 354.72 387.58 365.81 364.25 380.75
  Q 359.88 383.55 351.95 388.98
  A 0.23 0.23 0.0 0 1 351.64 388.93
  L 351.63 388.92
  A 0.20 0.20 0.0 0 1 351.66 388.65
  C 367.48 375.22 382.47 365.82 401.66 353.42
  Q 405.60 350.87 407.92 348.28
  A 1.39 1.38 -55.8 0 0 407.51 346.12
  C 405.28 345.00 401.34 345.71 398.76 346.28
  C 385.72 349.17 374.07 355.12 361.83 361.59
  C 356.21 364.56 350.33 368.73 345.20 372.42
  A 0.76 0.76 0.0 0 1 344.08 372.13
  Q 344.07 372.10 344.19 371.50"
/>
<path stroke="#ebf3f7" vector-effect="non-scaling-stroke" d="
  M 142.28 317.35
  Q 141.55 317.30 141.23 317.43
  A 0.66 0.66 0.0 0 0 141.12 318.58
  Q 142.13 319.27 143.43 319.61
  Q 147.14 320.60 152.19 322.75
  C 157.72 325.10 161.95 326.64 171.44 330.62
  Q 205.52 344.89 234.43 362.61
  Q 251.16 372.86 262.51 381.50
  Q 285.38 398.91 309.09 421.05
  A 1.12 1.09 36.7 0 0 310.81 420.82
  Q 311.06 420.39 310.92 419.51
  Q 310.56 417.27 310.42 414.49
  Q 310.10 407.84 310.62 402.09"
/>
<path stroke="#6db0cf" vector-effect="non-scaling-stroke" d="
  M 465.82 344.02
  Q 419.67 364.69 374.36 391.86
  Q 355.17 403.36 341.16 413.99"
/>
<path stroke="#6d9ebb" vector-effect="non-scaling-stroke" d="
  M 341.16 413.99
  Q 337.16 416.68 334.91 418.15
  Q 326.06 423.94 315.25 424.34
  C 306.56 424.66 297.94 423.98 290.32 419.15
  Q 286.93 417.00 283.87 414.59"
/>
<path stroke="#6c859d" vector-effect="non-scaling-stroke" d="
  M 283.87 414.59
  Q 268.28 402.87 256.42 395.57
  Q 198.12 359.71 130.77 332.48
  Q 118.14 327.37 94.97 319.69
  A 0.70 0.67 78.3 0 1 94.68 319.49
  Q 94.42 319.17 94.69 319.09"
/>
<path stroke="#7f8370" vector-effect="non-scaling-stroke" d="
  M 552.31 325.82
  Q 549.90 335.20 549.06 344.28"
/>
<path stroke="#024f7c" vector-effect="non-scaling-stroke" d="
  M 549.06 344.28
  Q 546.22 353.47 545.02 362.56
  A 1.70 1.70 0.0 0 1 544.10 363.87
  Q 534.00 369.07 525.64 372.63
  Q 517.82 375.97 504.45 379.71
  Q 492.16 383.16 447.07 395.06
  C 435.67 398.07 421.05 403.34 417.16 415.85
  Q 415.88 419.96 416.02 422.50
  Q 416.42 429.42 414.94 433.69"
/>
<path stroke="#03689a" vector-effect="non-scaling-stroke" d="
  M 414.94 433.69
  Q 409.65 438.31 406.23 442.48
  Q 397.92 452.60 390.97 460.49
  A 5.03 4.97 67.4 0 0 389.74 463.53
  Q 389.05 477.62 392.02 491.42
  Q 397.41 516.49 415.68 533.53
  C 424.03 541.32 434.32 546.48 445.39 549.81
  Q 456.90 553.27 468.68 554.50"
/>
<path stroke="#03689a" vector-effect="non-scaling-stroke" d="
  M 339.15 621.00
  L 341.16 413.99"
/>
<path stroke="#013d68" vector-effect="non-scaling-stroke" d="
  M 283.87 414.59
  Q 282.64 415.80 282.64 416.73
  C 282.50 484.83 283.01 552.90 283.72 621.00"
/>
<path stroke="#754a39" vector-effect="non-scaling-stroke" d="
  M 57.63 340.41
  Q 57.16 344.44 56.53 348.34
  Q 55.91 352.27 54.83 356.14
  C 52.60 364.18 50.97 370.95 52.11 378.98
  C 53.24 386.86 59.79 397.03 65.21 402.19
  Q 75.33 411.80 88.02 417.83
  Q 97.54 422.35 102.30 423.20
  Q 114.03 425.29 125.54 424.86
  A 0.41 0.41 0.0 0 1 125.86 425.55
  C 121.86 429.76 118.31 433.18 113.17 435.79
  Q 104.46 440.22 93.35 442.54
  A 0.56 0.56 0.0 0 0 92.99 443.38
  C 97.65 450.90 103.97 457.22 112.24 460.88
  Q 121.28 464.90 127.75 466.04
  Q 141.69 468.51 157.14 467.79
  A 0.53 0.53 0.0 0 1 157.54 468.69
  Q 153.73 472.60 152.27 473.99
  C 144.39 481.51 134.25 484.30 123.53 487.23
  A 0.71 0.71 0.0 0 0 123.09 488.24
  Q 129.03 499.65 140.20 505.44
  C 148.19 509.57 157.39 511.92 166.11 509.80
  C 183.14 505.66 197.05 491.33 202.83 474.92"
/>
<path stroke="#7e583e" vector-effect="non-scaling-stroke" d="
  M 202.83 474.92
  Q 203.72 473.49 203.69 472.16
  A 1.17 1.14 -69.5 0 0 203.33 471.34
  C 191.29 459.89 189.64 444.00 195.45 429.15
  A 0.47 0.46 22.6 0 0 195.20 428.55
  C 185.85 424.38 181.47 415.62 179.78 405.70"
/>
<path stroke="#754a39" vector-effect="non-scaling-stroke" d="
  M 179.78 405.70
  L 179.48 399.95
  A 0.50 0.49 -9.5 0 0 178.85 399.51
  Q 160.81 404.65 141.62 405.64
  Q 134.94 405.98 128.75 405.22
  Q 107.85 402.65 87.08 395.16
  Q 80.78 392.90 73.80 388.81
  C 67.22 384.96 63.81 376.36 62.13 368.82
  C 61.18 364.52 60.33 360.76 61.61 357.36
  A 0.59 0.58 -40.7 0 1 62.73 357.44
  L 64.12 363.98
  A 0.41 0.41 0.0 0 0 64.90 364.06
  Q 67.41 358.44 69.23 354.58
  C 72.09 348.50 72.67 343.17 71.90 337.01
  Q 71.18 331.19 70.09 325.50
  Q 70.02 325.16 69.76 325.20"
/>
<path stroke="#f27d2c" vector-effect="non-scaling-stroke" d="
  M 179.78 405.70
  Q 178.14 408.01 177.43 410.88
  Q 176.27 415.61 175.96 416.33
  Q 170.08 430.14 159.96 440.89
  C 157.11 443.92 152.97 447.06 150.24 449.40
  A 0.63 0.63 0.0 0 0 150.60 450.50
  C 163.38 451.43 177.04 448.64 189.17 444.72
  A 0.54 0.53 -12.6 0 1 189.87 445.16
  Q 190.08 446.96 189.39 448.91
  C 184.46 462.75 177.45 474.27 165.06 482.44
  A 0.43 0.43 0.0 0 0 165.13 483.19
  C 176.67 487.97 190.06 482.90 199.29 475.79
  Q 200.34 474.99 202.83 474.92"
/>
<path stroke="#7e583e" vector-effect="non-scaling-stroke" d="
  M 568.71 348.43
  Q 568.86 355.39 571.38 364.37
  Q 573.05 370.32 572.34 376.93
  Q 571.69 382.94 568.65 388.98
  Q 564.82 396.59 558.70 402.92"
/>
<path stroke="#f27d2c" vector-effect="non-scaling-stroke" d="
  M 558.70 402.92
  Q 558.05 400.76 556.60 401.33
  Q 554.30 402.23 548.15 405.36
  C 534.55 412.28 519.14 415.40 503.83 418.55
  Q 494.09 420.55 483.18 421.49
  A 0.29 0.29 0.0 0 0 483.12 422.06
  Q 490.57 424.45 497.70 425.00"
/>
<path stroke="#7e583e" vector-effect="non-scaling-stroke" d="
  M 497.70 425.00
  L 503.51 430.75"
/>
<path stroke="#f27d2c" vector-effect="non-scaling-stroke" d="
  M 503.51 430.75
  Q 505.67 437.35 511.42 442.33
  Q 514.25 444.79 518.04 446.51
  A 0.45 0.45 0.0 0 1 518.06 447.32
  Q 510.51 451.39 501.69 450.55
  Q 476.07 448.13 450.33 440.31
  Q 447.69 439.51 443.80 437.94
  C 440.62 436.65 437.10 435.66 434.05 433.63
  Q 432.46 432.57 430.80 431.74"
/>
<path stroke="#7e583e" vector-effect="non-scaling-stroke" d="
  M 430.80 431.74
  Q 430.02 430.37 429.99 428.98
  A 0.82 0.82 0.0 0 1 430.45 428.23
  Q 441.95 422.51 443.58 409.37
  Q 444.18 404.50 444.38 402.57
  A 0.57 0.57 0.0 0 1 445.05 402.06
  Q 465.36 405.58 485.02 405.82
  Q 493.94 405.92 504.27 404.03
  Q 519.80 401.18 541.19 393.19
  C 549.00 390.27 557.92 386.37 561.35 378.09
  C 563.30 373.35 566.13 363.70 563.19 359.81
  A 0.68 0.68 0.0 0 0 562.00 360.00
  L 559.84 366.12
  A 0.40 0.40 0.0 0 1 559.10 366.14
  C 558.18 363.99 557.56 361.05 556.28 358.52
  Q 552.80 351.68 549.06 344.28"
/>
<path stroke="#754a39" vector-effect="non-scaling-stroke" d="
  M 430.80 431.74
  C 433.65 445.51 432.17 462.30 420.17 471.51
  A 0.83 0.82 -28.1 0 0 419.89 472.43
  C 425.58 489.16 437.36 502.73 454.10 508.49
  C 462.34 511.33 470.72 511.25 478.73 508.26
  Q 494.09 502.52 501.69 488.19
  A 0.81 0.80 20.6 0 0 501.16 487.03
  Q 498.11 486.32 495.19 485.57
  Q 478.42 481.26 467.48 467.88
  A 0.34 0.34 0.0 0 1 467.77 467.32
  Q 484.24 468.61 499.70 465.51
  Q 520.89 461.26 532.05 443.38
  A 0.44 0.43 24.1 0 0 531.80 442.73
  C 522.81 440.18 511.87 436.49 503.51 430.75"
/>
<path stroke="#754a39" vector-effect="non-scaling-stroke" d="
  M 497.70 425.00
  Q 506.68 425.31 515.14 424.13
  Q 523.49 422.97 531.84 419.31
  Q 546.38 412.93 558.70 402.92"
/>
<path stroke="#013d68" vector-effect="non-scaling-stroke" d="
  M 499.56 535.17
  Q 471.51 539.47 445.90 529.43
  C 427.72 522.31 411.47 508.76 405.27 489.73
  C 401.70 478.77 403.48 465.52 407.45 454.91
  Q 410.11 447.77 413.10 440.61
  Q 414.47 437.30 414.94 433.69"
/>
</g>
<path fill="#00244a" d="
  M 516.44 307.10
  C 501.33 310.60 486.18 314.36 471.45 319.57
  A 0.92 0.92 0.0 0 1 470.24 318.89
  L 467.76 307.16
  A 1.16 1.16 0.0 0 0 466.28 306.30
  C 434.00 316.68 402.78 332.13 374.56 350.34
  Q 355.14 362.87 344.19 371.50
  Q 326.22 385.54 310.62 402.09
  Q 298.60 388.27 284.20 376.56
  Q 262.04 358.55 239.69 345.56
  Q 199.37 322.14 155.55 306.70
  A 0.62 0.60 -73.6 0 0 154.76 307.14
  L 151.80 319.54
  A 0.74 0.73 15.2 0 1 150.87 320.07
  L 142.28 317.35
  L 105.40 307.12
  Q 116.16 281.25 132.81 259.61
  A 1.92 1.91 50.1 0 0 132.99 257.55
  Q 120.67 233.82 117.42 206.60
  Q 116.11 195.55 115.85 183.89
  Q 115.58 171.28 117.26 161.19
  Q 119.12 149.98 122.96 138.21
  Q 124.87 132.33 126.16 127.13
  A 3.23 3.22 -61.1 0 0 125.27 124.03
  Q 121.61 120.53 120.28 119.20
  Q 89.60 88.61 82.89 45.07
  C 80.67 30.63 80.24 18.12 80.46 3.06
  A 0.40 0.40 0.0 0 1 81.11 2.75
  C 89.16 9.06 97.40 15.20 106.07 20.12
  Q 143.93 41.59 187.76 45.55
  C 194.69 46.18 201.64 44.64 211.23 42.43
  Q 217.46 41.00 240.27 35.27
  Q 274.38 26.70 315.50 26.94
  Q 352.26 27.17 388.38 36.63
  Q 410.29 42.37 417.71 44.05
  C 424.37 45.56 429.61 45.88 437.12 45.00
  C 470.92 41.02 502.27 30.24 530.22 10.81
  C 533.55 8.49 536.70 5.54 540.14 3.27
  A 0.27 0.26 -17.4 0 1 540.55 3.48
  C 542.04 43.63 533.91 84.67 505.26 114.53
  Q 499.77 120.24 495.36 124.95
  A 1.27 1.25 60.7 0 0 495.05 126.08
  Q 496.71 133.97 499.32 141.92
  Q 502.33 151.10 503.63 157.68
  Q 506.39 171.60 505.80 186.73
  Q 504.31 225.23 487.14 258.71
  A 2.72 2.72 0.0 0 0 487.47 261.69
  C 496.26 272.40 503.62 282.65 510.63 294.81
  C 512.61 298.24 514.43 303.04 516.44 307.10
  Z
  M 124.26 78.55
  C 132.86 94.92 148.89 107.96 165.63 115.35
  Q 182.48 122.80 199.72 126.75
  C 209.22 128.93 220.84 130.44 229.44 132.92
  C 253.33 139.81 273.33 155.61 288.67 175.00
  A 1.00 1.00 0.0 0 0 290.03 175.19
  Q 294.70 171.83 301.43 170.18
  L 314.90 169.89
  Q 324.48 170.04 332.48 174.68
  A 0.75 0.75 0.0 0 0 333.43 174.50
  C 350.65 153.20 373.39 137.18 400.33 131.36
  Q 421.18 126.85 424.79 126.00
  Q 442.92 121.69 461.08 112.81
  Q 480.17 103.48 493.62 85.13
  Q 500.46 75.81 503.08 65.55
  Q 506.26 58.26 507.42 49.86
  A 0.48 0.48 0.0 0 0 506.58 49.48
  C 501.84 55.09 494.57 59.21 487.00 62.96
  Q 473.01 69.89 454.36 75.84
  Q 450.50 77.07 446.85 77.82
  Q 441.93 75.90 436.91 75.42
  A 1.17 1.15 -81.7 0 1 435.89 74.03
  Q 435.98 73.59 436.73 73.22
  Q 449.43 66.89 456.69 64.76
  A 0.29 0.29 0.0 0 0 456.89 64.41
  L 456.89 64.39
  A 0.24 0.23 -13.7 0 0 456.62 64.23
  Q 449.84 65.54 439.00 66.83
  Q 420.09 69.09 403.40 66.55
  C 391.99 64.81 377.97 60.71 366.07 58.23
  Q 328.42 50.42 291.28 53.30
  Q 271.78 54.81 253.69 58.43
  C 243.28 60.51 226.31 65.71 214.53 67.03
  C 197.23 68.97 180.12 67.48 163.27 64.24
  A 0.29 0.29 0.0 0 0 162.93 64.45
  L 162.93 64.47
  A 0.31 0.31 0.0 0 0 163.14 64.85
  Q 173.37 68.05 183.58 73.20
  Q 184.27 73.54 184.43 74.13
  A 0.68 0.68 0.0 0 1 183.90 74.99
  Q 178.46 76.06 172.86 77.37
  Q 170.57 77.10 168.12 76.32
  Q 145.46 69.19 127.56 59.42
  Q 119.70 55.14 114.52 49.11
  A 0.38 0.38 0.0 0 0 113.86 49.28
  Q 113.80 49.54 113.87 49.98
  Q 116.14 65.35 124.26 78.55
  Z
  M 142.89 199.65
  Q 143.82 212.46 148.60 225.39
  C 157.09 248.37 172.92 266.48 192.34 280.55
  Q 207.76 291.71 209.89 292.85
  Q 255.56 317.29 294.51 350.76
  L 309.40 365.18
  A 0.54 0.54 0.0 0 0 310.16 365.18
  C 330.83 344.85 352.83 327.32 378.44 312.18
  Q 392.90 303.64 404.93 297.23
  Q 413.50 292.66 419.67 288.08
  Q 426.60 282.92 433.29 277.31
  C 450.19 263.13 463.96 245.12 471.00 224.23
  Q 474.47 213.93 476.24 203.22
  Q 478.35 194.93 478.64 187.18
  C 479.25 171.33 475.92 152.45 468.00 137.98
  Q 464.11 130.88 463.95 130.52
  A 0.91 0.91 0.0 0 0 462.85 130.04
  L 451.65 133.51
  A 0.68 0.67 -20.8 0 0 451.23 134.43
  C 460.75 155.70 460.49 180.16 450.02 200.73
  Q 447.23 206.20 442.96 209.67
  Q 446.63 192.50 445.13 175.17
  Q 444.76 172.71 444.46 169.92
  C 443.24 158.57 438.86 147.81 432.33 138.36
  A 0.59 0.59 0.0 0 0 431.74 138.12
  Q 419.26 140.73 406.41 143.65
  Q 402.14 144.63 401.79 146.23
  A 1.21 1.20 3.6 0 1 400.72 147.17
  Q 399.81 147.26 396.39 148.64
  C 388.19 151.96 384.90 160.47 389.02 168.51
  C 393.08 176.45 403.50 179.15 410.79 174.02
  Q 416.02 170.36 417.65 164.67
  A 0.53 0.53 0.0 0 1 418.63 164.56
  Q 420.43 167.99 420.50 172.42
  Q 420.78 191.03 405.04 200.23
  Q 396.92 204.98 388.71 204.37
  C 372.23 203.14 360.76 191.42 358.69 174.94
  A 0.52 0.52 0.0 0 0 357.74 174.72
  L 347.77 189.64
  A 0.78 0.78 0.0 0 0 347.82 190.58
  Q 355.03 199.09 358.34 209.88
  Q 359.74 214.44 360.61 217.76
  Q 360.69 221.91 360.68 224.75
  Q 360.68 232.02 358.40 238.91
  L 353.65 250.07
  Q 349.22 258.24 346.21 262.21
  Q 331.38 281.76 311.60 295.97
  A 1.64 1.64 0.0 0 1 309.77 296.02
  Q 297.35 288.15 287.66 277.10
  Q 280.21 268.60 276.89 263.86
  Q 272.92 258.20 268.65 249.33
  Q 267.33 246.78 265.17 241.08
  Q 262.16 233.11 262.06 225.75
  Q 262.02 222.31 262.31 217.89
  Q 264.65 203.94 273.02 192.19
  A 2.89 2.88 46.0 0 0 273.07 188.93
  L 264.74 176.41
  A 0.27 0.27 0.0 0 0 264.25 176.50
  C 263.83 178.33 263.27 181.39 262.42 183.45
  Q 256.82 197.10 243.60 202.22
  C 227.77 208.34 209.90 200.06 204.09 184.36
  Q 200.20 173.82 204.71 161.95
  Q 209.14 150.28 221.21 145.17
  A 0.51 0.51 0.0 0 0 221.11 144.20
  L 191.27 138.52
  A 0.96 0.95 22.0 0 0 190.29 138.93
  Q 180.21 153.98 178.05 171.71
  Q 175.42 187.22 178.31 202.99
  Q 178.95 206.46 179.70 208.80
  A 0.35 0.35 0.0 0 1 179.12 209.15
  C 174.24 204.18 170.81 198.14 168.62 191.20
  Q 161.46 168.49 168.62 145.91
  Q 169.86 142.02 172.54 135.60
  A 0.44 0.44 0.0 0 0 172.28 135.01
  L 157.10 129.65
  A 0.97 0.97 0.0 0 0 155.93 130.09
  Q 140.37 158.23 142.01 190.49
  Q 142.13 192.77 142.89 199.65
  Z
  M 234.1522 156.5460
  A 14.56 14.35 -141.9 0 0 236.7555 176.8225
  A 14.56 14.35 -141.9 0 0 257.0678 174.5140
  A 14.56 14.35 -141.9 0 0 254.4645 154.2375
  A 14.56 14.35 -141.9 0 0 234.1522 156.5460
  Z
  M 291.33 194.46
  Q 285.95 200.03 282.13 208.46
  Q 280.21 212.71 279.86 217.77
  C 278.81 233.16 286.19 247.57 294.39 260.11
  Q 296.39 263.18 302.39 271.68
  C 304.40 276.85 307.40 279.12 311.33 282.33
  A 0.54 0.53 -44.5 0 0 312.00 282.33
  C 316.68 278.42 319.40 274.08 322.85 269.48
  Q 335.46 252.60 340.33 238.56
  C 343.39 229.75 344.88 218.90 341.44 210.32
  C 337.91 201.50 330.74 189.58 320.99 187.32
  Q 317.53 186.52 311.72 186.72
  Q 304.03 186.99 302.44 187.34
  Q 296.14 188.72 291.33 194.46
  Z"
/>
<path fill="#fb8b31" d="
  M 172.86 77.37
  C 184.68 81.04 193.85 82.32 212.92 86.11
  Q 225.05 88.53 240.95 94.59
  C 270.80 105.96 296.28 128.76 310.30 157.74
  A 0.51 0.50 -35.6 0 0 311.12 157.87
  Q 311.54 157.44 311.73 156.99
  C 323.45 129.88 348.21 108.68 374.96 97.18
  Q 394.29 88.87 414.98 84.97
  Q 431.89 81.78 446.85 77.82
  Q 450.50 77.07 454.36 75.84
  Q 473.01 69.89 487.00 62.96
  C 494.57 59.21 501.84 55.09 506.58 49.48
  A 0.48 0.48 0.0 0 1 507.42 49.86
  Q 506.26 58.26 503.08 65.55
  Q 500.32 72.41 495.79 75.87
  Q 491.64 79.05 491.59 79.09
  Q 480.85 88.57 467.79 94.53
  C 456.02 99.91 440.92 104.35 424.91 108.34
  Q 404.72 113.38 393.18 117.22
  Q 382.71 120.71 369.36 126.81
  C 349.90 135.72 331.98 151.50 318.46 168.06
  A 2.75 2.69 8.0 0 1 317.40 168.84
  L 314.90 169.89
  L 301.43 170.18
  Q 287.75 152.50 275.65 142.59
  Q 260.55 130.24 243.83 123.47
  Q 227.04 116.68 214.75 113.55
  Q 190.60 107.41 172.64 102.36
  C 156.12 97.71 140.31 90.72 126.97 79.02
  Q 125.96 78.13 124.26 78.55
  Q 116.14 65.35 113.87 49.98
  Q 113.80 49.54 113.86 49.28
  A 0.38 0.38 0.0 0 1 114.52 49.11
  Q 119.70 55.14 127.56 59.42
  Q 145.46 69.19 168.12 76.32
  Q 170.57 77.10 172.86 77.37
  Z"
/>
<path fill="#037aae" d="
  M 446.85 77.82
  Q 431.89 81.78 414.98 84.97
  Q 394.29 88.87 374.96 97.18
  C 348.21 108.68 323.45 129.88 311.73 156.99
  Q 311.54 157.44 311.12 157.87
  A 0.51 0.50 -35.6 0 1 310.30 157.74
  C 296.28 128.76 270.80 105.96 240.95 94.59
  Q 225.05 88.53 212.92 86.11
  C 193.85 82.32 184.68 81.04 172.86 77.37
  Q 178.46 76.06 183.90 74.99
  A 0.68 0.68 0.0 0 0 184.43 74.13
  Q 184.27 73.54 183.58 73.20
  Q 173.37 68.05 163.14 64.85
  A 0.31 0.31 0.0 0 1 162.93 64.47
  L 162.93 64.45
  A 0.29 0.29 0.0 0 1 163.27 64.24
  C 180.12 67.48 197.23 68.97 214.53 67.03
  C 226.31 65.71 243.28 60.51 253.69 58.43
  Q 271.78 54.81 291.28 53.30
  Q 328.42 50.42 366.07 58.23
  C 377.97 60.71 391.99 64.81 403.40 66.55
  Q 420.09 69.09 439.00 66.83
  Q 449.84 65.54 456.62 64.23
  A 0.24 0.23 -13.7 0 1 456.89 64.39
  L 456.89 64.41
  A 0.29 0.29 0.0 0 1 456.69 64.76
  Q 449.43 66.89 436.73 73.22
  Q 435.98 73.59 435.89 74.03
  A 1.17 1.15 -81.7 0 0 436.91 75.42
  Q 441.93 75.90 446.85 77.82
  Z
  M 309.20 97.00
  C 309.73 97.00 309.37 97.03 309.53 96.86
  Q 325.02 80.33 347.16 74.77
  Q 347.61 74.66 347.64 74.23
  A 0.41 0.41 0.0 0 0 347.31 73.80
  Q 327.16 70.05 309.29 70.00
  Q 291.42 69.94 271.24 73.56
  A 0.41 0.41 0.0 0 0 270.91 73.98
  Q 270.93 74.41 271.38 74.52
  Q 293.49 80.23 308.87 96.86
  C 309.03 97.03 308.67 97.00 309.20 97.00
  Z"
/>
<path fill="#e96f27" d="
  M 503.08 65.55
  Q 500.46 75.81 493.62 85.13
  Q 480.17 103.48 461.08 112.81
  Q 442.92 121.69 424.79 126.00
  Q 421.18 126.85 400.33 131.36
  C 373.39 137.18 350.65 153.20 333.43 174.50
  A 0.75 0.75 0.0 0 1 332.48 174.68
  Q 324.48 170.04 314.90 169.89
  L 317.40 168.84
  A 2.75 2.69 8.0 0 0 318.46 168.06
  C 331.98 151.50 349.90 135.72 369.36 126.81
  Q 382.71 120.71 393.18 117.22
  Q 404.72 113.38 424.91 108.34
  C 440.92 104.35 456.02 99.91 467.79 94.53
  Q 480.85 88.57 491.59 79.09
  Q 491.64 79.05 495.79 75.87
  Q 500.32 72.41 503.08 65.55
  Z"
/>
<path fill="#55adcf" d="
  M 309.29 70.00
  Q 327.16 70.05 347.31 73.80
  A 0.41 0.41 0.0 0 1 347.64 74.23
  Q 347.61 74.66 347.16 74.77
  Q 325.02 80.33 309.53 96.86
  C 309.37 97.03 309.73 97.00 309.20 97.00
  C 308.67 97.00 309.03 97.03 308.87 96.86
  Q 293.49 80.23 271.38 74.52
  Q 270.93 74.41 270.91 73.98
  A 0.41 0.41 0.0 0 1 271.24 73.56
  Q 291.42 69.94 309.29 70.00
  Z"
/>
<path fill="#e96f27" d="
  M 301.43 170.18
  Q 294.70 171.83 290.03 175.19
  A 1.00 1.00 0.0 0 1 288.67 175.00
  C 273.33 155.61 253.33 139.81 229.44 132.92
  C 220.84 130.44 209.22 128.93 199.72 126.75
  Q 182.48 122.80 165.63 115.35
  C 148.89 107.96 132.86 94.92 124.26 78.55
  Q 125.96 78.13 126.97 79.02
  C 140.31 90.72 156.12 97.71 172.64 102.36
  Q 190.60 107.41 214.75 113.55
  Q 227.04 116.68 243.83 123.47
  Q 260.55 130.24 275.65 142.59
  Q 287.75 152.50 301.43 170.18
  Z"
/>
<path fill="#e96f27" d="
  M 178.05 171.71
  Q 179.01 176.14 179.95 180.45
  C 182.00 189.76 186.15 198.84 192.02 205.98
  Q 210.57 228.55 240.50 225.50
  Q 250.10 224.52 262.31 217.89
  Q 262.02 222.31 262.06 225.75
  Q 262.16 233.11 265.17 241.08
  Q 267.33 246.78 268.65 249.33
  Q 259.25 255.46 251.93 257.98
  Q 231.66 264.96 210.33 261.32
  C 185.17 257.04 164.14 241.02 151.43 219.04
  Q 148.34 213.70 142.89 199.65
  Q 142.13 192.77 142.01 190.49
  Q 140.37 158.23 155.93 130.09
  A 0.97 0.97 0.0 0 1 157.10 129.65
  L 172.28 135.01
  A 0.44 0.44 0.0 0 1 172.54 135.60
  Q 169.86 142.02 168.62 145.91
  Q 161.46 168.49 168.62 191.20
  C 170.81 198.14 174.24 204.18 179.12 209.15
  A 0.35 0.35 0.0 0 0 179.70 208.80
  Q 178.95 206.46 178.31 202.99
  Q 175.42 187.22 178.05 171.71
  Z"
/>
<path fill="#fb8b31" d="
  M 476.24 203.22
  Q 474.96 205.73 474.04 208.25
  Q 469.60 220.38 461.87 230.41
  C 447.49 249.07 427.64 261.24 403.75 262.62
  Q 386.26 263.63 369.26 257.78
  Q 360.44 254.71 353.65 250.07
  L 358.40 238.91
  Q 360.30 239.69 362.16 240.35
  C 365.47 241.53 369.24 241.82 372.49 242.34
  C 391.29 245.38 410.12 240.30 425.48 229.22
  Q 436.64 221.18 442.96 209.67
  Q 447.23 206.20 450.02 200.73
  C 460.49 180.16 460.75 155.70 451.23 134.43
  A 0.68 0.67 -20.8 0 1 451.65 133.51
  L 462.85 130.04
  A 0.91 0.91 0.0 0 1 463.95 130.52
  Q 464.11 130.88 468.00 137.98
  C 475.92 152.45 479.25 171.33 478.64 187.18
  Q 478.35 194.93 476.24 203.22
  Z"
/>
<path fill="#feffff" d="
  M 445.13 175.17
  Q 443.95 177.85 442.14 184.62
  Q 439.06 196.20 430.57 206.79
  C 419.34 220.79 402.36 227.55 384.42 225.59
  Q 372.15 224.24 360.61 217.76
  Q 359.74 214.44 358.34 209.88
  Q 355.03 199.09 347.82 190.58
  A 0.78 0.78 0.0 0 1 347.77 189.64
  L 357.74 174.72
  A 0.52 0.52 0.0 0 1 358.69 174.94
  C 360.76 191.42 372.23 203.14 388.71 204.37
  Q 396.92 204.98 405.04 200.23
  Q 420.78 191.03 420.50 172.42
  Q 420.43 167.99 418.63 164.56
  A 0.53 0.53 0.0 0 0 417.65 164.67
  Q 416.02 170.36 410.79 174.02
  C 403.50 179.15 393.08 176.45 389.02 168.51
  C 384.90 160.47 388.19 151.96 396.39 148.64
  Q 399.81 147.26 400.72 147.17
  A 1.21 1.20 3.6 0 0 401.79 146.23
  Q 402.14 144.63 406.41 143.65
  Q 419.26 140.73 431.74 138.12
  A 0.59 0.59 0.0 0 1 432.33 138.36
  C 438.86 147.81 443.24 158.57 444.46 169.92
  Q 444.76 172.71 445.13 175.17
  Z"
/>
<path fill="#feffff" d="
  M 262.31 217.89
  Q 250.10 224.52 240.50 225.50
  Q 210.57 228.55 192.02 205.98
  C 186.15 198.84 182.00 189.76 179.95 180.45
  Q 179.01 176.14 178.05 171.71
  Q 180.21 153.98 190.29 138.93
  A 0.96 0.95 22.0 0 1 191.27 138.52
  L 221.11 144.20
  A 0.51 0.51 0.0 0 1 221.21 145.17
  Q 209.14 150.28 204.71 161.95
  Q 200.20 173.82 204.09 184.36
  C 209.90 200.06 227.77 208.34 243.60 202.22
  Q 256.82 197.10 262.42 183.45
  C 263.27 181.39 263.83 178.33 264.25 176.50
  A 0.27 0.27 0.0 0 1 264.74 176.41
  L 273.07 188.93
  A 2.89 2.88 46.0 0 1 273.02 192.19
  Q 264.65 203.94 262.31 217.89
  Z"
/>
<ellipse fill="#feffff" cx="0.00" cy="0.00" transform="translate(245.61,165.53) rotate(-141.9)" rx="14.56" ry="14.35"/>
<path fill="#e96f27" d="
  M 445.13 175.17
  Q 446.63 192.50 442.96 209.67
  Q 436.64 221.18 425.48 229.22
  C 410.12 240.30 391.29 245.38 372.49 242.34
  C 369.24 241.82 365.47 241.53 362.16 240.35
  Q 360.30 239.69 358.40 238.91
  Q 360.68 232.02 360.68 224.75
  Q 360.69 221.91 360.61 217.76
  Q 372.15 224.24 384.42 225.59
  C 402.36 227.55 419.34 220.79 430.57 206.79
  Q 439.06 196.20 442.14 184.62
  Q 443.95 177.85 445.13 175.17
  Z"
/>
<path fill="#feffff" d="
  M 302.39 271.68
  L 309.05 271.39
  A 0.61 0.60 76.3 0 0 309.57 270.53
  Q 305.02 260.88 300.75 248.04
  Q 296.43 235.03 296.75 226.13
  C 297.21 212.96 301.09 200.15 310.53 191.10
  A 0.46 0.46 0.0 0 0 310.11 190.32
  L 291.33 194.46
  Q 296.14 188.72 302.44 187.34
  Q 304.03 186.99 311.72 186.72
  Q 317.53 186.52 320.99 187.32
  C 330.74 189.58 337.91 201.50 341.44 210.32
  C 344.88 218.90 343.39 229.75 340.33 238.56
  Q 335.46 252.60 322.85 269.48
  C 319.40 274.08 316.68 278.42 312.00 282.33
  A 0.54 0.53 -44.5 0 1 311.33 282.33
  C 307.40 279.12 304.40 276.85 302.39 271.68
  Z
  M 299.87 228.32
  C 300.01 235.34 301.22 241.31 305.06 247.00
  A 0.33 0.33 0.0 0 0 305.65 246.77
  Q 304.11 236.68 303.94 228.24
  Q 303.76 219.80 304.88 209.65
  A 0.33 0.33 0.0 0 0 304.27 209.44
  C 300.68 215.29 299.72 221.31 299.87 228.32
  Z"
/>
<path fill="#d7e6ef" d="
  M 302.39 271.68
  Q 296.39 263.18 294.39 260.11
  C 286.19 247.57 278.81 233.16 279.86 217.77
  Q 280.21 212.71 282.13 208.46
  Q 285.95 200.03 291.33 194.46
  L 310.11 190.32
  A 0.46 0.46 0.0 0 1 310.53 191.10
  C 301.09 200.15 297.21 212.96 296.75 226.13
  Q 296.43 235.03 300.75 248.04
  Q 305.02 260.88 309.57 270.53
  A 0.61 0.60 76.3 0 1 309.05 271.39
  L 302.39 271.68
  Z"
/>
<path fill="#025586" d="
  M 142.89 199.65
  Q 148.34 213.70 151.43 219.04
  C 164.14 241.02 185.17 257.04 210.33 261.32
  Q 231.66 264.96 251.93 257.98
  Q 259.25 255.46 268.65 249.33
  Q 272.92 258.20 276.89 263.86
  Q 280.21 268.60 287.66 277.10
  Q 297.35 288.15 309.77 296.02
  A 1.64 1.64 0.0 0 0 311.60 295.97
  Q 331.38 281.76 346.21 262.21
  Q 349.22 258.24 353.65 250.07
  Q 360.44 254.71 369.26 257.78
  Q 367.39 264.56 362.41 271.91
  Q 360.95 274.07 348.97 293.47
  Q 343.76 301.91 332.81 314.57
  Q 320.24 329.09 303.70 343.44
  Q 298.35 348.07 294.51 350.76
  Q 255.56 317.29 209.89 292.85
  Q 207.76 291.71 192.34 280.55
  C 172.92 266.48 157.09 248.37 148.60 225.39
  Q 143.82 212.46 142.89 199.65
  Z"
/>
<path fill="#037aae" d="
  M 294.51 350.76
  Q 298.35 348.07 303.70 343.44
  Q 320.24 329.09 332.81 314.57
  Q 343.76 301.91 348.97 293.47
  Q 360.95 274.07 362.41 271.91
  Q 367.39 264.56 369.26 257.78
  Q 386.26 263.63 403.75 262.62
  C 427.64 261.24 447.49 249.07 461.87 230.41
  Q 469.60 220.38 474.04 208.25
  Q 474.96 205.73 476.24 203.22
  Q 474.47 213.93 471.00 224.23
  C 463.96 245.12 450.19 263.13 433.29 277.31
  Q 426.60 282.92 419.67 288.08
  Q 413.50 292.66 404.93 297.23
  Q 392.90 303.64 378.44 312.18
  C 352.83 327.32 330.83 344.85 310.16 365.18
  A 0.54 0.54 0.0 0 1 309.40 365.18
  L 294.51 350.76
  Z"
/>
<path fill="#d7e6ef" d="
  M 303.94 228.24
  Q 304.11 236.68 305.65 246.77
  A 0.33 0.33 0.0 0 1 305.06 247.00
  C 301.22 241.31 300.01 235.34 299.87 228.32
  C 299.72 221.31 300.68 215.29 304.27 209.44
  A 0.33 0.33 0.0 0 1 304.88 209.65
  Q 303.76 219.80 303.94 228.24
  Z"
/>
<path fill="#feffff" d="
  M 527.79 319.08
  Q 527.84 319.37 527.74 319.55
  A 0.26 0.26 0.0 0 1 527.60 319.66
  Q 496.22 330.62 465.82 344.02
  Q 465.35 342.89 465.40 341.80
  A 0.65 0.65 0.0 0 0 464.93 341.15
  Q 463.40 340.71 461.76 341.00
  Q 452.45 342.65 440.15 346.45
  C 413.43 354.72 387.58 365.81 364.25 380.75
  Q 359.88 383.55 351.95 388.98
  A 0.23 0.23 0.0 0 1 351.64 388.93
  L 351.63 388.92
  A 0.20 0.20 0.0 0 1 351.66 388.65
  C 367.48 375.22 382.47 365.82 401.66 353.42
  Q 405.60 350.87 407.92 348.28
  A 1.39 1.38 -55.8 0 0 407.51 346.12
  C 405.28 345.00 401.34 345.71 398.76 346.28
  C 385.72 349.17 374.07 355.12 361.83 361.59
  C 356.21 364.56 350.33 368.73 345.20 372.42
  A 0.76 0.76 0.0 0 1 344.08 372.13
  Q 344.07 372.10 344.19 371.50
  Q 355.14 362.87 374.56 350.34
  C 402.78 332.13 434.00 316.68 466.28 306.30
  A 1.16 1.16 0.0 0 1 467.76 307.16
  L 470.24 318.89
  A 0.92 0.92 0.0 0 0 471.45 319.57
  C 486.18 314.36 501.33 310.60 516.44 307.10
  Q 518.35 307.16 520.16 306.69
  C 524.61 305.53 525.25 306.20 526.29 310.32
  Q 527.47 315.01 527.48 317.94
  Q 527.48 318.50 527.79 319.08
  Z"
/>
<path fill="#d7e6ef" d="
  M 105.40 307.12
  L 142.28 317.35
  Q 141.55 317.30 141.23 317.43
  A 0.66 0.66 0.0 0 0 141.12 318.58
  Q 142.13 319.27 143.43 319.61
  Q 147.14 320.60 152.19 322.75
  C 157.72 325.10 161.95 326.64 171.44 330.62
  Q 205.52 344.89 234.43 362.61
  Q 251.16 372.86 262.51 381.50
  Q 285.38 398.91 309.09 421.05
  A 1.12 1.09 36.7 0 0 310.81 420.82
  Q 311.06 420.39 310.92 419.51
  Q 310.56 417.27 310.42 414.49
  Q 310.10 407.84 310.62 402.09
  Q 326.22 385.54 344.19 371.50
  Q 344.07 372.10 344.08 372.13
  A 0.76 0.76 0.0 0 0 345.20 372.42
  C 350.33 368.73 356.21 364.56 361.83 361.59
  C 374.07 355.12 385.72 349.17 398.76 346.28
  C 401.34 345.71 405.28 345.00 407.51 346.12
  A 1.39 1.38 -55.8 0 1 407.92 348.28
  Q 405.60 350.87 401.66 353.42
  C 382.47 365.82 367.48 375.22 351.66 388.65
  A 0.20 0.20 0.0 0 0 351.63 388.92
  L 351.64 388.93
  A 0.23 0.23 0.0 0 0 351.95 388.98
  Q 359.88 383.55 364.25 380.75
  C 387.58 365.81 413.43 354.72 440.15 346.45
  Q 452.45 342.65 461.76 341.00
  Q 463.40 340.71 464.93 341.15
  A 0.65 0.65 0.0 0 1 465.40 341.80
  Q 465.35 342.89 465.82 344.02
  Q 419.67 364.69 374.36 391.86
  Q 355.17 403.36 341.16 413.99
  Q 337.16 416.68 334.91 418.15
  Q 326.06 423.94 315.25 424.34
  C 306.56 424.66 297.94 423.98 290.32 419.15
  Q 286.93 417.00 283.87 414.59
  Q 268.28 402.87 256.42 395.57
  Q 198.12 359.71 130.77 332.48
  Q 118.14 327.37 94.97 319.69
  A 0.70 0.67 78.3 0 1 94.68 319.49
  Q 94.42 319.17 94.69 319.09
  L 96.89 308.07
  A 2.50 2.50 0.0 0 1 99.79 306.10
  L 105.40 307.12
  Z"
/>
<path fill="#feffff" d="
  M 310.62 402.09
  Q 310.10 407.84 310.42 414.49
  Q 310.56 417.27 310.92 419.51
  Q 311.06 420.39 310.81 420.82
  A 1.12 1.09 36.7 0 1 309.09 421.05
  Q 285.38 398.91 262.51 381.50
  Q 251.16 372.86 234.43 362.61
  Q 205.52 344.89 171.44 330.62
  C 161.95 326.64 157.72 325.10 152.19 322.75
  Q 147.14 320.60 143.43 319.61
  Q 142.13 319.27 141.12 318.58
  A 0.66 0.66 0.0 0 1 141.23 317.43
  Q 141.55 317.30 142.28 317.35
  L 150.87 320.07
  A 0.74 0.73 15.2 0 0 151.80 319.54
  L 154.76 307.14
  A 0.62 0.60 -73.6 0 1 155.55 306.70
  Q 199.37 322.14 239.69 345.56
  Q 262.04 358.55 284.20 376.56
  Q 298.60 388.27 310.62 402.09
  Z"
/>
<path fill="#037aae" d="
  M 552.31 325.82
  Q 549.90 335.20 549.06 344.28
  Q 546.22 353.47 545.02 362.56
  A 1.70 1.70 0.0 0 1 544.10 363.87
  Q 534.00 369.07 525.64 372.63
  Q 517.82 375.97 504.45 379.71
  Q 492.16 383.16 447.07 395.06
  C 435.67 398.07 421.05 403.34 417.16 415.85
  Q 415.88 419.96 416.02 422.50
  Q 416.42 429.42 414.94 433.69
  Q 409.65 438.31 406.23 442.48
  Q 397.92 452.60 390.97 460.49
  A 5.03 4.97 67.4 0 0 389.74 463.53
  Q 389.05 477.62 392.02 491.42
  Q 397.41 516.49 415.68 533.53
  C 424.03 541.32 434.32 546.48 445.39 549.81
  Q 456.90 553.27 468.68 554.50
  Q 417.02 577.72 369.33 606.15
  Q 356.82 613.61 344.34 621.00
  L 339.15 621.00
  L 341.16 413.99
  Q 355.17 403.36 374.36 391.86
  Q 419.67 364.69 465.82 344.02
  Q 496.22 330.62 527.60 319.66
  A 0.26 0.26 0.0 0 0 527.74 319.55
  Q 527.84 319.37 527.79 319.08
  Q 529.14 319.55 530.75 319.02
  Q 542.25 315.24 553.00 312.32
  A 0.47 0.46 86.2 0 1 553.58 312.83
  Q 552.84 318.48 551.95 324.00
  Q 551.84 324.63 552.31 325.82
  Z"
/>
<path fill="#00244a" d="
  M 94.69 319.09
  Q 94.42 319.17 94.68 319.49
  A 0.70 0.67 78.3 0 0 94.97 319.69
  Q 118.14 327.37 130.77 332.48
  Q 198.12 359.71 256.42 395.57
  Q 268.28 402.87 283.87 414.59
  Q 282.64 415.80 282.64 416.73
  C 282.50 484.83 283.01 552.90 283.72 621.00
  L 275.81 621.00
  Q 262.01 612.85 248.07 604.72
  Q 187.00 569.11 123.36 542.42
  A 1.84 1.84 0.0 0 1 122.25 540.93
  L 120.90 529.08
  A 2.06 2.05 9.5 0 0 119.74 527.46
  C 99.57 517.97 82.38 502.45 69.59 484.43
  C 49.34 455.93 40.85 418.66 42.77 383.50
  Q 44.08 359.70 57.63 340.41
  Q 57.16 344.44 56.53 348.34
  Q 55.91 352.27 54.83 356.14
  C 52.60 364.18 50.97 370.95 52.11 378.98
  C 53.24 386.86 59.79 397.03 65.21 402.19
  Q 75.33 411.80 88.02 417.83
  Q 97.54 422.35 102.30 423.20
  Q 114.03 425.29 125.54 424.86
  A 0.41 0.41 0.0 0 1 125.86 425.55
  C 121.86 429.76 118.31 433.18 113.17 435.79
  Q 104.46 440.22 93.35 442.54
  A 0.56 0.56 0.0 0 0 92.99 443.38
  C 97.65 450.90 103.97 457.22 112.24 460.88
  Q 121.28 464.90 127.75 466.04
  Q 141.69 468.51 157.14 467.79
  A 0.53 0.53 0.0 0 1 157.54 468.69
  Q 153.73 472.60 152.27 473.99
  C 144.39 481.51 134.25 484.30 123.53 487.23
  A 0.71 0.71 0.0 0 0 123.09 488.24
  Q 129.03 499.65 140.20 505.44
  C 148.19 509.57 157.39 511.92 166.11 509.80
  C 183.14 505.66 197.05 491.33 202.83 474.92
  Q 203.72 473.49 203.69 472.16
  A 1.17 1.14 -69.5 0 0 203.33 471.34
  C 191.29 459.89 189.64 444.00 195.45 429.15
  A 0.47 0.46 22.6 0 0 195.20 428.55
  C 185.85 424.38 181.47 415.62 179.78 405.70
  L 179.48 399.95
  A 0.50 0.49 -9.5 0 0 178.85 399.51
  Q 160.81 404.65 141.62 405.64
  Q 134.94 405.98 128.75 405.22
  Q 107.85 402.65 87.08 395.16
  Q 80.78 392.90 73.80 388.81
  C 67.22 384.96 63.81 376.36 62.13 368.82
  C 61.18 364.52 60.33 360.76 61.61 357.36
  A 0.59 0.58 -40.7 0 1 62.73 357.44
  L 64.12 363.98
  A 0.41 0.41 0.0 0 0 64.90 364.06
  Q 67.41 358.44 69.23 354.58
  C 72.09 348.50 72.67 343.17 71.90 337.01
  Q 71.18 331.19 70.09 325.50
  Q 70.02 325.16 69.76 325.20
  L 68.52 313.17
  A 0.50 0.50 0.0 0 1 69.14 312.63
  Q 80.53 315.55 92.50 319.04
  Q 93.50 319.34 94.69 319.09
  Z"
/>
<path fill="#e96f27" d="
  M 69.76 325.20
  Q 70.02 325.16 70.09 325.50
  Q 71.18 331.19 71.90 337.01
  C 72.67 343.17 72.09 348.50 69.23 354.58
  Q 67.41 358.44 64.90 364.06
  A 0.41 0.41 0.0 0 1 64.12 363.98
  L 62.73 357.44
  A 0.59 0.58 -40.7 0 0 61.61 357.36
  C 60.33 360.76 61.18 364.52 62.13 368.82
  C 63.81 376.36 67.22 384.96 73.80 388.81
  Q 80.78 392.90 87.08 395.16
  Q 107.85 402.65 128.75 405.22
  Q 134.94 405.98 141.62 405.64
  Q 160.81 404.65 178.85 399.51
  A 0.50 0.49 -9.5 0 1 179.48 399.95
  L 179.78 405.70
  Q 178.14 408.01 177.43 410.88
  Q 176.27 415.61 175.96 416.33
  Q 170.08 430.14 159.96 440.89
  C 157.11 443.92 152.97 447.06 150.24 449.40
  A 0.63 0.63 0.0 0 0 150.60 450.50
  C 163.38 451.43 177.04 448.64 189.17 444.72
  A 0.54 0.53 -12.6 0 1 189.87 445.16
  Q 190.08 446.96 189.39 448.91
  C 184.46 462.75 177.45 474.27 165.06 482.44
  A 0.43 0.43 0.0 0 0 165.13 483.19
  C 176.67 487.97 190.06 482.90 199.29 475.79
  Q 200.34 474.99 202.83 474.92
  C 197.05 491.33 183.14 505.66 166.11 509.80
  C 157.39 511.92 148.19 509.57 140.20 505.44
  Q 129.03 499.65 123.09 488.24
  A 0.71 0.71 0.0 0 1 123.53 487.23
  C 134.25 484.30 144.39 481.51 152.27 473.99
  Q 153.73 472.60 157.54 468.69
  A 0.53 0.53 0.0 0 0 157.14 467.79
  Q 141.69 468.51 127.75 466.04
  Q 121.28 464.90 112.24 460.88
  C 103.97 457.22 97.65 450.90 92.99 443.38
  A 0.56 0.56 0.0 0 1 93.35 442.54
  Q 104.46 440.22 113.17 435.79
  C 118.31 433.18 121.86 429.76 125.86 425.55
  A 0.41 0.41 0.0 0 0 125.54 424.86
  Q 114.03 425.29 102.30 423.20
  Q 97.54 422.35 88.02 417.83
  Q 75.33 411.80 65.21 402.19
  C 59.79 397.03 53.24 386.86 52.11 378.98
  C 50.97 370.95 52.60 364.18 54.83 356.14
  Q 55.91 352.27 56.53 348.34
  Q 57.16 344.44 57.63 340.41
  Q 62.92 332.25 69.76 325.20
  Z"
/>
<path fill="#fb8b31" d="
  M 552.31 325.82
  Q 554.92 328.68 557.13 331.11
  Q 564.47 339.13 568.71 348.43
  Q 568.86 355.39 571.38 364.37
  Q 573.05 370.32 572.34 376.93
  Q 571.69 382.94 568.65 388.98
  Q 564.82 396.59 558.70 402.92
  Q 558.05 400.76 556.60 401.33
  Q 554.30 402.23 548.15 405.36
  C 534.55 412.28 519.14 415.40 503.83 418.55
  Q 494.09 420.55 483.18 421.49
  A 0.29 0.29 0.0 0 0 483.12 422.06
  Q 490.57 424.45 497.70 425.00
  L 503.51 430.75
  Q 505.67 437.35 511.42 442.33
  Q 514.25 444.79 518.04 446.51
  A 0.45 0.45 0.0 0 1 518.06 447.32
  Q 510.51 451.39 501.69 450.55
  Q 476.07 448.13 450.33 440.31
  Q 447.69 439.51 443.80 437.94
  C 440.62 436.65 437.10 435.66 434.05 433.63
  Q 432.46 432.57 430.80 431.74
  Q 430.02 430.37 429.99 428.98
  A 0.82 0.82 0.0 0 1 430.45 428.23
  Q 441.95 422.51 443.58 409.37
  Q 444.18 404.50 444.38 402.57
  A 0.57 0.57 0.0 0 1 445.05 402.06
  Q 465.36 405.58 485.02 405.82
  Q 493.94 405.92 504.27 404.03
  Q 519.80 401.18 541.19 393.19
  C 549.00 390.27 557.92 386.37 561.35 378.09
  C 563.30 373.35 566.13 363.70 563.19 359.81
  A 0.68 0.68 0.0 0 0 562.00 360.00
  L 559.84 366.12
  A 0.40 0.40 0.0 0 1 559.10 366.14
  C 558.18 363.99 557.56 361.05 556.28 358.52
  Q 552.80 351.68 549.06 344.28
  Q 549.90 335.20 552.31 325.82
  Z"
/>
<path fill="#00244a" d="
  M 430.80 431.74
  C 433.65 445.51 432.17 462.30 420.17 471.51
  A 0.83 0.82 -28.1 0 0 419.89 472.43
  C 425.58 489.16 437.36 502.73 454.10 508.49
  C 462.34 511.33 470.72 511.25 478.73 508.26
  Q 494.09 502.52 501.69 488.19
  A 0.81 0.80 20.6 0 0 501.16 487.03
  Q 498.11 486.32 495.19 485.57
  Q 478.42 481.26 467.48 467.88
  A 0.34 0.34 0.0 0 1 467.77 467.32
  Q 484.24 468.61 499.70 465.51
  Q 520.89 461.26 532.05 443.38
  A 0.44 0.43 24.1 0 0 531.80 442.73
  C 522.81 440.18 511.87 436.49 503.51 430.75
  L 497.70 425.00
  Q 506.68 425.31 515.14 424.13
  Q 523.49 422.97 531.84 419.31
  Q 546.38 412.93 558.70 402.92
  Q 564.82 396.59 568.65 388.98
  Q 571.69 382.94 572.34 376.93
  Q 573.05 370.32 571.38 364.37
  Q 568.86 355.39 568.71 348.43
  Q 574.06 359.71 577.36 373.87
  Q 579.22 381.89 579.58 389.48
  C 582.21 445.33 554.20 504.92 501.24 528.05
  A 2.01 2.00 81.1 0 0 500.04 529.71
  L 499.56 535.17
  Q 471.51 539.47 445.90 529.43
  C 427.72 522.31 411.47 508.76 405.27 489.73
  C 401.70 478.77 403.48 465.52 407.45 454.91
  Q 410.11 447.77 413.10 440.61
  Q 414.47 437.30 414.94 433.69
  Q 416.42 429.42 416.02 422.50
  Q 415.88 419.96 417.16 415.85
  C 421.05 403.34 435.67 398.07 447.07 395.06
  Q 492.16 383.16 504.45 379.71
  Q 517.82 375.97 525.64 372.63
  Q 534.00 369.07 544.10 363.87
  A 1.70 1.70 0.0 0 0 545.02 362.56
  Q 546.22 353.47 549.06 344.28
  Q 552.80 351.68 556.28 358.52
  C 557.56 361.05 558.18 363.99 559.10 366.14
  A 0.40 0.40 0.0 0 0 559.84 366.12
  L 562.00 360.00
  A 0.68 0.68 0.0 0 1 563.19 359.81
  C 566.13 363.70 563.30 373.35 561.35 378.09
  C 557.92 386.37 549.00 390.27 541.19 393.19
  Q 519.80 401.18 504.27 404.03
  Q 493.94 405.92 485.02 405.82
  Q 465.36 405.58 445.05 402.06
  A 0.57 0.57 0.0 0 0 444.38 402.57
  Q 444.18 404.50 443.58 409.37
  Q 441.95 422.51 430.45 428.23
  A 0.82 0.82 0.0 0 0 429.99 428.98
  Q 430.02 430.37 430.80 431.74
  Z"
/>
<path fill="#e96f27" d="
  M 558.70 402.92
  Q 546.38 412.93 531.84 419.31
  Q 523.49 422.97 515.14 424.13
  Q 506.68 425.31 497.70 425.00
  Q 490.57 424.45 483.12 422.06
  A 0.29 0.29 0.0 0 1 483.18 421.49
  Q 494.09 420.55 503.83 418.55
  C 519.14 415.40 534.55 412.28 548.15 405.36
  Q 554.30 402.23 556.60 401.33
  Q 558.05 400.76 558.70 402.92
  Z"
/>
<path fill="#fb8b31" d="
  M 179.78 405.70
  C 181.47 415.62 185.85 424.38 195.20 428.55
  A 0.47 0.46 22.6 0 1 195.45 429.15
  C 189.64 444.00 191.29 459.89 203.33 471.34
  A 1.17 1.14 -69.5 0 1 203.69 472.16
  Q 203.72 473.49 202.83 474.92
  Q 200.34 474.99 199.29 475.79
  C 190.06 482.90 176.67 487.97 165.13 483.19
  A 0.43 0.43 0.0 0 1 165.06 482.44
  C 177.45 474.27 184.46 462.75 189.39 448.91
  Q 190.08 446.96 189.87 445.16
  A 0.54 0.53 -12.6 0 0 189.17 444.72
  C 177.04 448.64 163.38 451.43 150.60 450.50
  A 0.63 0.63 0.0 0 1 150.24 449.40
  C 152.97 447.06 157.11 443.92 159.96 440.89
  Q 170.08 430.14 175.96 416.33
  Q 176.27 415.61 177.43 410.88
  Q 178.14 408.01 179.78 405.70
  Z"
/>
<path fill="#025586" d="
  M 341.16 413.99
  L 339.15 621.00
  L 283.72 621.00
  C 283.01 552.90 282.50 484.83 282.64 416.73
  Q 282.64 415.80 283.87 414.59
  Q 286.93 417.00 290.32 419.15
  C 297.94 423.98 306.56 424.66 315.25 424.34
  Q 326.06 423.94 334.91 418.15
  Q 337.16 416.68 341.16 413.99
  Z"
/>
<path fill="#e96f27" d="
  M 430.80 431.74
  Q 432.46 432.57 434.05 433.63
  C 437.10 435.66 440.62 436.65 443.80 437.94
  Q 447.69 439.51 450.33 440.31
  Q 476.07 448.13 501.69 450.55
  Q 510.51 451.39 518.06 447.32
  A 0.45 0.45 0.0 0 0 518.04 446.51
  Q 514.25 444.79 511.42 442.33
  Q 505.67 437.35 503.51 430.75
  C 511.87 436.49 522.81 440.18 531.80 442.73
  A 0.44 0.43 24.1 0 1 532.05 443.38
  Q 520.89 461.26 499.70 465.51
  Q 484.24 468.61 467.77 467.32
  A 0.34 0.34 0.0 0 0 467.48 467.88
  Q 478.42 481.26 495.19 485.57
  Q 498.11 486.32 501.16 487.03
  A 0.81 0.80 20.6 0 1 501.69 488.19
  Q 494.09 502.52 478.73 508.26
  C 470.72 511.25 462.34 511.33 454.10 508.49
  C 437.36 502.73 425.58 489.16 419.89 472.43
  A 0.83 0.82 -28.1 0 1 420.17 471.51
  C 432.17 462.30 433.65 445.51 430.80 431.74
  Z"
/>
<path fill="#025586" d="
  M 414.94 433.69
  Q 414.47 437.30 413.10 440.61
  Q 410.11 447.77 407.45 454.91
  C 403.48 465.52 401.70 478.77 405.27 489.73
  C 411.47 508.76 427.72 522.31 445.90 529.43
  Q 471.51 539.47 499.56 535.17
  L 498.97 540.43
  A 2.50 2.49 81.7 0 1 497.46 542.46
  L 468.68 554.50
  Q 456.90 553.27 445.39 549.81
  C 434.32 546.48 424.03 541.32 415.68 533.53
  Q 397.41 516.49 392.02 491.42
  Q 389.05 477.62 389.74 463.53
  A 5.03 4.97 67.4 0 1 390.97 460.49
  Q 397.92 452.60 406.23 442.48
  Q 409.65 438.31 414.94 433.69
  Z"
/>
</svg>
